<svg width="286" height="135" viewBox="0 0 286 135" fill="none" xmlns="http://www.w3.org/2000/svg">
<path d="M162.663 49.0126L177 63.3464L172.263 68.083L157.93 53.7459C152.596 58.0213 145.962 60.3467 139.127 60.337C122.497 60.337 109 46.8401 109 30.21C109 13.5799 122.497 0.0830078 139.127 0.0830078C155.757 0.0830078 169.254 13.5799 169.254 30.21C169.264 37.0455 166.938 43.6793 162.663 49.0126ZM155.948 46.5288C160.195 42.1594 162.568 36.3036 162.559 30.21C162.559 17.2654 152.072 6.7779 139.127 6.7779C126.182 6.7779 115.695 17.2654 115.695 30.21C115.695 43.1546 126.182 53.6421 139.127 53.6421C145.221 53.6507 151.076 51.2783 155.446 47.0309L155.948 46.5288Z" fill="#AFAFAF"/>
<path d="M51.0381 90.699C51.7954 90.699 52.4621 90.9177 53.0381 91.355C53.6247 91.7817 54.0834 92.395 54.4141 93.195C54.7554 93.9843 54.9261 94.9177 54.9261 95.995C54.9261 97.083 54.7554 98.027 54.4141 98.827C54.0834 99.6163 53.6247 100.23 53.0381 100.667C52.4621 101.094 51.7954 101.307 51.0381 101.307C50.2807 101.307 49.6087 101.094 49.0221 100.667C48.4354 100.23 47.9714 99.6163 47.6301 98.827C47.2994 98.027 47.1341 97.083 47.1341 95.995C47.1341 94.9177 47.2994 93.9843 47.6301 93.195C47.9714 92.395 48.4354 91.7817 49.0221 91.355C49.6087 90.9177 50.2807 90.699 51.0381 90.699ZM51.0381 92.635C50.6754 92.635 50.3501 92.763 50.0621 93.019C49.7847 93.275 49.5661 93.6537 49.4061 94.155C49.2567 94.6457 49.1821 95.259 49.1821 95.995C49.1821 96.7203 49.2567 97.339 49.4061 97.851C49.5661 98.3523 49.7847 98.731 50.0621 98.987C50.3501 99.243 50.6754 99.371 51.0381 99.371C51.4007 99.371 51.7207 99.243 51.9981 98.987C52.2754 98.731 52.4887 98.3523 52.6381 97.851C52.7981 97.339 52.8781 96.7203 52.8781 95.995C52.8781 95.259 52.7981 94.6457 52.6381 94.155C52.4887 93.6537 52.2754 93.275 51.9981 93.019C51.7207 92.763 51.4007 92.635 51.0381 92.635ZM56.5261 89.691H58.6701V104.507H56.5261V89.691ZM58.2061 95.275H60.8141V97.019H58.2061V95.275ZM65.3728 91.211H67.1328V92.139C67.1328 93.067 66.9781 93.9523 66.6688 94.795C66.3701 95.627 65.9115 96.3523 65.2928 96.971C64.6741 97.5897 63.8848 98.0537 62.9248 98.363L61.8368 96.715C62.6688 96.4483 63.3408 96.075 63.8528 95.595C64.3755 95.1043 64.7595 94.5603 65.0048 93.963C65.2501 93.355 65.3728 92.747 65.3728 92.139V91.211ZM65.8208 91.211H67.5488V92.139C67.5488 92.5763 67.6181 93.0137 67.7568 93.451C67.8955 93.8777 68.1035 94.283 68.3808 94.667C68.6688 95.051 69.0315 95.3977 69.4688 95.707C69.9061 96.0163 70.4235 96.267 71.0208 96.459L69.9488 98.123C69.0208 97.8243 68.2528 97.3763 67.6448 96.779C67.0368 96.1817 66.5781 95.483 66.2688 94.683C65.9701 93.8723 65.8208 93.0243 65.8208 92.139V91.211ZM71.9648 89.675H74.0928V98.619H71.9648V89.675ZM63.9968 99.275H74.0928V104.507H71.9648V100.955H63.9968V99.275ZM62.4128 90.555H70.4768V92.235H62.4128V90.555ZM85.8683 90.523H88.1083C88.1083 91.8243 87.8416 92.987 87.3083 94.011C86.7856 95.035 86.023 95.9097 85.0203 96.635C84.0283 97.3497 82.807 97.9097 81.3563 98.315L80.5403 96.651C81.7243 96.331 82.711 95.9203 83.5003 95.419C84.2896 94.907 84.8816 94.3257 85.2763 93.675C85.671 93.0137 85.8683 92.299 85.8683 91.531V90.523ZM81.3403 90.523H87.3563V92.219H81.3403V90.523ZM90.7323 89.675H92.8763V97.963H90.7323V89.675ZM88.1883 93.195H91.0363V94.923H88.1883V93.195ZM83.1003 98.571H92.8763V104.347H83.1003V98.571ZM90.7803 100.235H85.1963V102.667H90.7803V100.235ZM97.8511 90.523H99.5151V92.235C99.5151 93.0777 99.3977 93.899 99.1631 94.699C98.9284 95.499 98.5604 96.2137 98.0591 96.843C97.5684 97.4723 96.9177 97.963 96.1071 98.315L94.9871 96.667C95.6697 96.3577 96.2191 95.963 96.6351 95.483C97.0617 95.003 97.3711 94.4803 97.5631 93.915C97.7551 93.3497 97.8511 92.7897 97.8511 92.235V90.523ZM98.2511 90.523H99.9151V92.235C99.9151 92.779 100.006 93.3123 100.187 93.835C100.368 94.347 100.662 94.8163 101.067 95.243C101.472 95.6697 102 96.0217 102.651 96.299L101.531 97.915C100.763 97.595 100.134 97.147 99.6431 96.571C99.1631 95.9843 98.8111 95.323 98.5871 94.587C98.3631 93.8403 98.2511 93.0563 98.2511 92.235V90.523ZM105.787 89.691H107.819V98.683H105.787V89.691ZM104.027 93.291H106.379V95.003H104.027V93.291ZM102.667 89.915H104.651V98.603H102.667V89.915ZM97.6271 99.323H107.819V104.507H105.691V101.019H97.6271V99.323ZM111.194 94.219H118.458V95.899H111.194V94.219ZM113.738 95.307H115.882V98.139H113.738V95.307ZM111.194 90.587H118.378V92.267H113.322V94.923H111.194V90.587ZM120.122 89.675H122.25V100.827H120.122V89.675ZM112.218 102.539H122.65V104.251H112.218V102.539ZM112.218 100.043H114.362V103.195H112.218V100.043ZM110.234 99.147L109.978 97.467C110.916 97.467 111.908 97.4617 112.954 97.451C113.999 97.4297 115.055 97.3977 116.122 97.355C117.199 97.3017 118.234 97.227 119.226 97.131L119.386 98.651C118.351 98.8003 117.3 98.9123 116.234 98.987C115.178 99.051 114.143 99.0937 113.13 99.115C112.116 99.1363 111.151 99.147 110.234 99.147ZM138.121 89.691H140.249V98.363H138.121V89.691ZM139.417 93.243H142.217V94.987H139.417V93.243ZM130.617 98.939H132.729V100.043H138.153V98.939H140.249V104.347H130.617V98.939ZM132.729 101.643V102.683H138.153V101.643H132.729ZM128.601 90.971H137.305V92.651H128.601V90.971ZM132.953 93.035C133.679 93.035 134.313 93.147 134.857 93.371C135.401 93.5843 135.828 93.8883 136.137 94.283C136.447 94.6777 136.601 95.1363 136.601 95.659C136.601 96.1817 136.447 96.6403 136.137 97.035C135.828 97.4297 135.401 97.739 134.857 97.963C134.313 98.1763 133.679 98.283 132.953 98.283C132.239 98.283 131.604 98.1763 131.049 97.963C130.505 97.739 130.079 97.4297 129.769 97.035C129.46 96.6403 129.305 96.1817 129.305 95.659C129.305 95.1363 129.46 94.6777 129.769 94.283C130.079 93.8883 130.505 93.5843 131.049 93.371C131.604 93.147 132.239 93.035 132.953 93.035ZM132.953 94.587C132.484 94.587 132.1 94.683 131.801 94.875C131.503 95.0563 131.353 95.3177 131.353 95.659C131.353 96.011 131.503 96.283 131.801 96.475C132.1 96.6563 132.484 96.747 132.953 96.747C133.433 96.747 133.817 96.6563 134.105 96.475C134.404 96.283 134.553 96.011 134.553 95.659C134.553 95.3177 134.404 95.0563 134.105 94.875C133.817 94.683 133.433 94.587 132.953 94.587ZM131.897 89.563H134.009V91.899H131.897V89.563ZM148.792 91.323H150.648V91.771C150.648 92.283 150.563 92.779 150.392 93.259C150.232 93.739 149.987 94.187 149.656 94.603C149.325 95.0083 148.92 95.3763 148.44 95.707C147.971 96.027 147.427 96.299 146.808 96.523C146.189 96.747 145.501 96.907 144.744 97.003L143.96 95.355C144.621 95.2697 145.208 95.1417 145.72 94.971C146.243 94.7897 146.696 94.5817 147.08 94.347C147.464 94.1017 147.784 93.8403 148.04 93.563C148.296 93.2857 148.483 92.9923 148.6 92.683C148.728 92.3737 148.792 92.0697 148.792 91.771V91.323ZM149.416 91.323H151.256V91.771C151.256 92.0697 151.315 92.3737 151.432 92.683C151.56 92.9923 151.752 93.2857 152.008 93.563C152.264 93.8403 152.584 94.1017 152.968 94.347C153.363 94.5817 153.816 94.7897 154.328 94.971C154.84 95.1417 155.427 95.2697 156.088 95.355L155.304 97.003C154.547 96.907 153.859 96.747 153.24 96.523C152.621 96.299 152.072 96.027 151.592 95.707C151.123 95.3763 150.723 95.0083 150.392 94.603C150.072 94.187 149.827 93.739 149.656 93.259C149.496 92.779 149.416 92.283 149.416 91.771V91.323ZM148.904 99.083H151.032V104.507H148.904V99.083ZM143.32 97.851H156.728V99.563H143.32V97.851ZM144.504 90.443H155.496V92.123H144.504V90.443ZM168.215 89.691H170.343V97.163H168.215V89.691ZM160.471 97.819H170.343V101.835H162.583V103.323H160.487V100.315H168.231V99.451H160.471V97.819ZM160.487 102.747H170.711V104.411H160.487V102.747ZM161.511 90.027H163.271V91.131C163.271 92.0377 163.116 92.9017 162.807 93.723C162.497 94.5443 162.023 95.259 161.383 95.867C160.753 96.475 159.953 96.9283 158.983 97.227L157.959 95.547C158.577 95.355 159.111 95.1043 159.559 94.795C160.007 94.4857 160.375 94.1337 160.663 93.739C160.951 93.3443 161.164 92.9283 161.303 92.491C161.441 92.043 161.511 91.5897 161.511 91.131V90.027ZM161.943 90.027H163.671V91.131C163.671 91.579 163.74 92.0163 163.879 92.443C164.017 92.859 164.225 93.2537 164.503 93.627C164.78 94.0003 165.137 94.331 165.575 94.619C166.012 94.907 166.529 95.1363 167.127 95.307L166.103 96.971C165.399 96.7577 164.785 96.4643 164.263 96.091C163.74 95.707 163.303 95.259 162.951 94.747C162.609 94.2243 162.353 93.659 162.183 93.051C162.023 92.443 161.943 91.803 161.943 91.131V90.027ZM182.918 89.659H185.046V104.523H182.918V89.659ZM177.062 90.699C177.819 90.699 178.491 90.9177 179.078 91.355C179.664 91.7817 180.123 92.395 180.454 93.195C180.795 93.9843 180.966 94.9177 180.966 95.995C180.966 97.083 180.795 98.027 180.454 98.827C180.123 99.6163 179.664 100.23 179.078 100.667C178.491 101.094 177.819 101.307 177.062 101.307C176.315 101.307 175.648 101.094 175.062 100.667C174.475 100.23 174.011 99.6163 173.67 98.827C173.339 98.027 173.174 97.083 173.174 95.995C173.174 94.9177 173.339 93.9843 173.67 93.195C174.011 92.395 174.475 91.7817 175.062 91.355C175.648 90.9177 176.315 90.699 177.062 90.699ZM177.062 92.635C176.699 92.635 176.379 92.763 176.102 93.019C175.824 93.275 175.606 93.6537 175.446 94.155C175.296 94.6457 175.222 95.259 175.222 95.995C175.222 96.7203 175.296 97.339 175.446 97.851C175.606 98.3523 175.824 98.731 176.102 98.987C176.379 99.243 176.699 99.371 177.062 99.371C177.435 99.371 177.76 99.243 178.038 98.987C178.315 98.731 178.528 98.3523 178.678 97.851C178.838 97.339 178.918 96.7203 178.918 95.995C178.918 95.259 178.838 94.6457 178.678 94.155C178.528 93.6537 178.315 93.275 178.038 93.019C177.76 92.763 177.435 92.635 177.062 92.635ZM193.061 98.363H195.045V99.819H196.517V98.363H198.469V104.347H193.061V98.363ZM195.045 101.355V102.747H196.517V101.355H195.045ZM200.773 98.235H202.373V99.339C202.373 100.064 202.272 100.768 202.069 101.451C201.866 102.123 201.536 102.72 201.077 103.243C200.629 103.776 200.037 104.187 199.301 104.475L198.261 102.891C198.858 102.646 199.338 102.336 199.701 101.963C200.074 101.579 200.346 101.163 200.517 100.715C200.688 100.256 200.773 99.7977 200.773 99.339V98.235ZM201.253 98.235H202.885V99.339C202.885 99.851 202.965 100.342 203.125 100.811C203.296 101.27 203.562 101.68 203.925 102.043C204.298 102.406 204.784 102.688 205.381 102.891L204.325 104.475C203.578 104.208 202.981 103.819 202.533 103.307C202.085 102.795 201.76 102.203 201.557 101.531C201.354 100.848 201.253 100.118 201.253 99.339V98.235ZM198.933 92.859H202.645V94.571H198.933V92.859ZM195.525 90.235C196.272 90.235 196.938 90.3843 197.525 90.683C198.122 90.9817 198.592 91.3923 198.933 91.915C199.274 92.4377 199.445 93.0403 199.445 93.723C199.445 94.4057 199.274 95.0137 198.933 95.547C198.592 96.0697 198.122 96.4803 197.525 96.779C196.938 97.0777 196.272 97.227 195.525 97.227C194.789 97.227 194.122 97.0777 193.525 96.779C192.938 96.4803 192.474 96.0697 192.133 95.547C191.792 95.0137 191.621 94.4057 191.621 93.723C191.621 93.0403 191.792 92.4377 192.133 91.915C192.474 91.3923 192.938 90.9817 193.525 90.683C194.122 90.3843 194.789 90.235 195.525 90.235ZM195.525 91.979C195.162 91.979 194.837 92.0483 194.549 92.187C194.272 92.3257 194.053 92.5283 193.893 92.795C193.733 93.051 193.653 93.3603 193.653 93.723C193.653 94.0857 193.733 94.4003 193.893 94.667C194.053 94.9337 194.272 95.1363 194.549 95.275C194.837 95.4137 195.162 95.483 195.525 95.483C195.888 95.483 196.208 95.4137 196.485 95.275C196.773 95.1363 196.997 94.9337 197.157 94.667C197.317 94.4003 197.397 94.0857 197.397 93.723C197.397 93.3603 197.317 93.051 197.157 92.795C196.997 92.5283 196.773 92.3257 196.485 92.187C196.208 92.0483 195.888 91.979 195.525 91.979ZM201.701 89.691H203.845V97.531H201.701V89.691ZM210.212 90.699C210.948 90.699 211.604 90.9177 212.18 91.355C212.766 91.7817 213.22 92.395 213.54 93.195C213.87 93.9843 214.036 94.9177 214.036 95.995C214.036 97.083 213.87 98.027 213.54 98.827C213.22 99.6163 212.766 100.23 212.18 100.667C211.604 101.094 210.948 101.307 210.212 101.307C209.476 101.307 208.82 101.094 208.244 100.667C207.668 100.23 207.214 99.6163 206.884 98.827C206.553 98.027 206.388 97.083 206.388 95.995C206.388 94.9177 206.553 93.9843 206.884 93.195C207.214 92.395 207.668 91.7817 208.244 91.355C208.82 90.9177 209.476 90.699 210.212 90.699ZM210.212 92.635C209.86 92.635 209.545 92.763 209.268 93.019C209.001 93.275 208.793 93.6537 208.644 94.155C208.494 94.6457 208.42 95.259 208.42 95.995C208.42 96.7203 208.494 97.339 208.644 97.851C208.793 98.3523 209.001 98.731 209.268 98.987C209.545 99.243 209.86 99.371 210.212 99.371C210.585 99.371 210.905 99.243 211.172 98.987C211.438 98.731 211.646 98.3523 211.796 97.851C211.945 97.339 212.02 96.7203 212.02 95.995C212.02 95.259 211.945 94.6457 211.796 94.155C211.646 93.6537 211.438 93.275 211.172 93.019C210.905 92.763 210.585 92.635 210.212 92.635ZM216.468 89.659H218.596V104.523H216.468V89.659ZM213.412 95.019H217.364V96.715H213.412V95.019ZM223.827 97.211H225.955V101.355H223.827V97.211ZM229.203 97.211H231.331V101.355H229.203V97.211ZM220.883 101.051H234.307V102.779H220.883V101.051ZM227.571 90.411C228.637 90.411 229.587 90.5763 230.419 90.907C231.261 91.2377 231.917 91.7017 232.387 92.299C232.867 92.8857 233.107 93.5843 233.107 94.395C233.107 95.195 232.867 95.8937 232.387 96.491C231.917 97.0777 231.261 97.5363 230.419 97.867C229.587 98.1977 228.637 98.363 227.571 98.363C226.515 98.363 225.565 98.1977 224.723 97.867C223.891 97.5363 223.235 97.0777 222.755 96.491C222.275 95.8937 222.035 95.195 222.035 94.395C222.035 93.5843 222.275 92.8857 222.755 92.299C223.235 91.7017 223.891 91.2377 224.723 90.907C225.565 90.5763 226.515 90.411 227.571 90.411ZM227.571 92.059C226.888 92.059 226.285 92.155 225.763 92.347C225.251 92.5283 224.851 92.7897 224.563 93.131C224.275 93.4723 224.131 93.8937 224.131 94.395C224.131 94.875 224.275 95.291 224.563 95.643C224.851 95.9843 225.251 96.251 225.763 96.443C226.285 96.6243 226.888 96.715 227.571 96.715C228.264 96.715 228.867 96.6243 229.379 96.443C229.901 96.251 230.301 95.9843 230.579 95.643C230.867 95.291 231.011 94.875 231.011 94.395C231.011 93.8937 230.867 93.4723 230.579 93.131C230.301 92.7897 229.901 92.5283 229.379 92.347C228.867 92.155 228.264 92.059 227.571 92.059ZM237.269 103.208C236.924 103.208 236.629 103.087 236.383 102.844C236.137 102.602 236.015 102.306 236.019 101.958C236.015 101.617 236.137 101.325 236.383 101.083C236.629 100.841 236.924 100.719 237.269 100.719C237.603 100.719 237.892 100.841 238.138 101.083C238.388 101.325 238.515 101.617 238.519 101.958C238.515 102.189 238.455 102.399 238.337 102.589C238.224 102.778 238.072 102.93 237.883 103.043C237.697 103.153 237.493 103.208 237.269 103.208Z" fill="#AFAFAF"/>
<path d="M4.349 119.027H6.045V120.691C6.045 121.544 5.95433 122.382 5.773 123.203C5.60233 124.024 5.341 124.798 4.989 125.523C4.64767 126.238 4.21567 126.872 3.693 127.427C3.17033 127.971 2.56233 128.403 1.869 128.723L0.653 127.043C1.27167 126.755 1.81033 126.382 2.269 125.923C2.73833 125.464 3.12233 124.952 3.421 124.387C3.73033 123.811 3.95967 123.208 4.109 122.579C4.269 121.939 4.349 121.31 4.349 120.691V119.027ZM4.813 119.027H6.493V120.691C6.493 121.278 6.56767 121.875 6.717 122.483C6.877 123.08 7.10633 123.651 7.405 124.195C7.70367 124.728 8.08233 125.208 8.541 125.635C8.99967 126.062 9.54367 126.403 10.173 126.659L9.005 128.355C8.301 128.046 7.68767 127.63 7.165 127.107C6.64233 126.584 6.205 125.982 5.853 125.299C5.501 124.616 5.23967 123.886 5.069 123.107C4.89833 122.318 4.813 121.512 4.813 120.691V119.027ZM1.245 118.099H9.565V119.859H1.245V118.099ZM10.941 116.691H13.069V131.507H10.941V116.691ZM17.1478 117.347H26.5238V119.027H17.1478V117.347ZM15.4998 122.675H28.9238V124.355H15.4998V122.675ZM25.2438 117.347H27.3398V118.531C27.3398 119.16 27.3238 119.838 27.2918 120.563C27.2598 121.288 27.1318 122.131 26.9078 123.091L24.7798 123.075C25.0144 122.104 25.1478 121.262 25.1798 120.547C25.2224 119.832 25.2438 119.16 25.2438 118.531V117.347ZM17.0678 125.907H27.2758V131.347H17.0678V125.907ZM25.1958 127.571H19.1638V129.667H25.1958V127.571ZM34.8113 117.747H42.7953V119.443H34.8113V117.747ZM34.6673 125.203L34.4433 123.475C35.3073 123.475 36.2459 123.47 37.2593 123.459C38.2726 123.438 39.3019 123.4 40.3473 123.347C41.3926 123.294 42.3953 123.214 43.3553 123.107L43.4993 124.659C42.5179 124.819 41.5046 124.942 40.4593 125.027C39.4246 125.102 38.4113 125.15 37.4193 125.171C36.4379 125.192 35.5206 125.203 34.6673 125.203ZM35.9953 119.091H38.0273V124.051H35.9953V119.091ZM39.5793 119.091H41.6273V124.051H39.5793V119.091ZM36.3953 126.339H46.4913V131.507H44.3633V128.051H36.3953V126.339ZM44.3633 116.691H46.4913V125.731H44.3633V116.691ZM58.426 116.691H60.554V125.363H58.426V116.691ZM59.722 120.243H62.522V121.987H59.722V120.243ZM50.922 125.939H53.034V127.043H58.458V125.939H60.554V131.347H50.922V125.939ZM53.034 128.643V129.683H58.458V128.643H53.034ZM48.906 117.971H57.61V119.651H48.906V117.971ZM53.258 120.035C53.9833 120.035 54.618 120.147 55.162 120.371C55.706 120.584 56.1327 120.888 56.442 121.283C56.7513 121.678 56.906 122.136 56.906 122.659C56.906 123.182 56.7513 123.64 56.442 124.035C56.1327 124.43 55.706 124.739 55.162 124.963C54.618 125.176 53.9833 125.283 53.258 125.283C52.5433 125.283 51.9087 125.176 51.354 124.963C50.81 124.739 50.3833 124.43 50.074 124.035C49.7647 123.64 49.61 123.182 49.61 122.659C49.61 122.136 49.7647 121.678 50.074 121.283C50.3833 120.888 50.81 120.584 51.354 120.371C51.9087 120.147 52.5433 120.035 53.258 120.035ZM53.258 121.587C52.7887 121.587 52.4047 121.683 52.106 121.875C51.8073 122.056 51.658 122.318 51.658 122.659C51.658 123.011 51.8073 123.283 52.106 123.475C52.4047 123.656 52.7887 123.747 53.258 123.747C53.738 123.747 54.122 123.656 54.41 123.475C54.7087 123.283 54.858 123.011 54.858 122.659C54.858 122.318 54.7087 122.056 54.41 121.875C54.122 121.683 53.738 121.587 53.258 121.587ZM52.202 116.563H54.314V118.899H52.202V116.563ZM69.0968 118.323H70.9528V118.771C70.9528 119.283 70.8674 119.779 70.6968 120.259C70.5368 120.739 70.2914 121.187 69.9608 121.603C69.6301 122.008 69.2248 122.376 68.7448 122.707C68.2754 123.027 67.7314 123.299 67.1128 123.523C66.4941 123.747 65.8061 123.907 65.0488 124.003L64.2648 122.355C64.9261 122.27 65.5128 122.142 66.0248 121.971C66.5474 121.79 67.0008 121.582 67.3848 121.347C67.7688 121.102 68.0888 120.84 68.3448 120.563C68.6008 120.286 68.7874 119.992 68.9048 119.683C69.0328 119.374 69.0968 119.07 69.0968 118.771V118.323ZM69.7208 118.323H71.5608V118.771C71.5608 119.07 71.6194 119.374 71.7368 119.683C71.8648 119.992 72.0568 120.286 72.3128 120.563C72.5688 120.84 72.8888 121.102 73.2728 121.347C73.6674 121.582 74.1208 121.79 74.6328 121.971C75.1448 122.142 75.7314 122.27 76.3928 122.355L75.6088 124.003C74.8514 123.907 74.1634 123.747 73.5448 123.523C72.9261 123.299 72.3768 123.027 71.8968 122.707C71.4274 122.376 71.0274 122.008 70.6968 121.603C70.3768 121.187 70.1314 120.739 69.9608 120.259C69.8008 119.779 69.7208 119.283 69.7208 118.771V118.323ZM69.2088 126.083H71.3368V131.507H69.2088V126.083ZM63.6248 124.851H77.0328V126.563H63.6248V124.851ZM64.8088 117.443H75.8008V119.123H64.8088V117.443ZM84.2635 122.131H86.6955V123.843H84.2635V122.131ZM89.0315 116.675H91.0635V131.491H89.0315V116.675ZM86.0235 116.915H88.0075V130.835H86.0235V116.915ZM81.6715 117.715C82.3222 117.715 82.8875 117.934 83.3675 118.371C83.8582 118.798 84.2315 119.416 84.4875 120.227C84.7542 121.027 84.8875 121.987 84.8875 123.107C84.8875 124.216 84.7542 125.176 84.4875 125.987C84.2315 126.798 83.8582 127.422 83.3675 127.859C82.8875 128.286 82.3168 128.499 81.6555 128.499C81.0155 128.499 80.4502 128.286 79.9595 127.859C79.4795 127.422 79.1062 126.798 78.8395 125.987C78.5835 125.176 78.4555 124.216 78.4555 123.107C78.4555 121.987 78.5835 121.027 78.8395 120.227C79.1062 119.416 79.4795 118.798 79.9595 118.371C80.4502 117.934 81.0208 117.715 81.6715 117.715ZM81.6715 119.731C81.4048 119.731 81.1755 119.854 80.9835 120.099C80.7915 120.344 80.6422 120.718 80.5355 121.219C80.4395 121.71 80.3915 122.339 80.3915 123.107C80.3915 123.854 80.4395 124.478 80.5355 124.979C80.6422 125.48 80.7915 125.859 80.9835 126.115C81.1755 126.36 81.4048 126.483 81.6715 126.483C81.9382 126.483 82.1675 126.36 82.3595 126.115C82.5622 125.859 82.7115 125.48 82.8075 124.979C82.9035 124.478 82.9515 123.854 82.9515 123.107C82.9515 122.339 82.9035 121.71 82.8075 121.219C82.7115 120.718 82.5622 120.344 82.3595 120.099C82.1675 119.854 81.9382 119.731 81.6715 119.731ZM100.534 121.315H104.438V123.027H100.534V121.315ZM96.5023 117.811H98.2143V119.971C98.2143 120.899 98.1343 121.8 97.9743 122.675C97.8143 123.55 97.5689 124.366 97.2383 125.123C96.9076 125.88 96.4863 126.547 95.9743 127.123C95.4729 127.699 94.8756 128.163 94.1823 128.515L92.8543 126.819C93.4836 126.52 94.0223 126.131 94.4703 125.651C94.9289 125.171 95.3076 124.627 95.6063 124.019C95.9156 123.4 96.1396 122.75 96.2783 122.067C96.4276 121.374 96.5023 120.675 96.5023 119.971V117.811ZM96.9343 117.811H98.6303V119.971C98.6303 120.664 98.6996 121.352 98.8383 122.035C98.9769 122.707 99.1849 123.336 99.4623 123.923C99.7503 124.51 100.118 125.032 100.566 125.491C101.014 125.939 101.548 126.302 102.166 126.579L100.886 128.275C100.193 127.934 99.5956 127.486 99.0943 126.931C98.5929 126.366 98.1823 125.72 97.8623 124.995C97.5529 124.27 97.3183 123.48 97.1583 122.627C97.0089 121.774 96.9343 120.888 96.9343 119.971V117.811ZM103.366 116.659H105.494V131.523H103.366V116.659ZM122.806 122.275H125.414V124.035H122.806V122.275ZM121.206 116.659H123.35V131.475H121.206V116.659ZM112.198 118.083H114.31V127.299H112.198V118.083ZM112.198 126.099H113.462C114.518 126.099 115.616 126.056 116.758 125.971C117.899 125.886 119.067 125.726 120.262 125.491L120.486 127.219C119.248 127.475 118.043 127.651 116.87 127.747C115.696 127.832 114.56 127.875 113.462 127.875H112.198V126.099ZM126.885 117.891H133.957V125.059H126.885V117.891ZM131.861 119.587H128.981V123.379H131.861V119.587ZM135.989 116.691H138.117V127.491H135.989V116.691ZM137.525 120.963H140.085V122.707H137.525V120.963ZM128.565 129.539H138.645V131.251H128.565V129.539ZM128.565 126.435H130.709V130.403H128.565V126.435ZM145.955 117.667C146.723 117.667 147.417 117.822 148.035 118.131C148.654 118.44 149.139 118.872 149.491 119.427C149.843 119.971 150.019 120.6 150.019 121.315C150.019 122.019 149.843 122.648 149.491 123.203C149.139 123.758 148.654 124.19 148.035 124.499C147.417 124.808 146.723 124.963 145.955 124.963C145.177 124.963 144.478 124.808 143.859 124.499C143.241 124.19 142.75 123.758 142.387 123.203C142.035 122.648 141.859 122.019 141.859 121.315C141.859 120.6 142.035 119.971 142.387 119.427C142.75 118.872 143.241 118.44 143.859 118.131C144.478 117.822 145.177 117.667 145.955 117.667ZM145.955 119.491C145.571 119.491 145.225 119.566 144.915 119.715C144.617 119.854 144.377 120.062 144.195 120.339C144.025 120.606 143.939 120.931 143.939 121.315C143.939 121.699 144.025 122.03 144.195 122.307C144.377 122.584 144.617 122.798 144.915 122.947C145.225 123.086 145.571 123.155 145.955 123.155C146.329 123.155 146.665 123.086 146.963 122.947C147.262 122.798 147.497 122.584 147.667 122.307C147.849 122.03 147.939 121.699 147.939 121.315C147.939 120.931 147.849 120.606 147.667 120.339C147.497 120.062 147.262 119.854 146.963 119.715C146.665 119.566 146.329 119.491 145.955 119.491ZM151.411 116.659H153.539V131.523H151.411V116.659ZM141.491 128.531L141.251 126.803C142.115 126.803 143.07 126.798 144.115 126.787C145.171 126.766 146.254 126.723 147.363 126.659C148.483 126.584 149.566 126.472 150.611 126.323L150.755 127.859C149.689 128.072 148.606 128.227 147.507 128.323C146.409 128.408 145.347 128.467 144.323 128.499C143.299 128.52 142.355 128.531 141.491 128.531ZM166.483 125.907C167.549 125.907 168.477 126.019 169.267 126.243C170.056 126.467 170.664 126.787 171.091 127.203C171.528 127.619 171.747 128.12 171.747 128.707C171.747 129.283 171.528 129.779 171.091 130.195C170.664 130.622 170.056 130.947 169.267 131.171C168.477 131.395 167.549 131.507 166.483 131.507C165.427 131.507 164.504 131.395 163.715 131.171C162.925 130.947 162.312 130.622 161.875 130.195C161.448 129.779 161.235 129.283 161.235 128.707C161.235 128.12 161.448 127.619 161.875 127.203C162.312 126.787 162.925 126.467 163.715 126.243C164.504 126.019 165.427 125.907 166.483 125.907ZM166.483 127.507C165.821 127.507 165.256 127.55 164.787 127.635C164.317 127.72 163.96 127.854 163.715 128.035C163.48 128.216 163.363 128.44 163.363 128.707C163.363 128.974 163.48 129.198 163.715 129.379C163.96 129.55 164.317 129.683 164.787 129.779C165.256 129.864 165.821 129.907 166.483 129.907C167.155 129.907 167.725 129.864 168.195 129.779C168.664 129.683 169.021 129.55 169.267 129.379C169.512 129.198 169.635 128.974 169.635 128.707C169.635 128.44 169.512 128.216 169.267 128.035C169.021 127.854 168.664 127.72 168.195 127.635C167.725 127.55 167.155 127.507 166.483 127.507ZM161.395 117.347H170.787V119.011H161.395V117.347ZM159.907 123.299H173.235V124.979H159.907V123.299ZM164.835 120.707H166.963V123.715H164.835V120.707ZM169.539 117.347H171.667V118.563C171.667 119.15 171.651 119.763 171.619 120.403C171.587 121.043 171.464 121.747 171.251 122.515L169.139 122.307C169.341 121.55 169.459 120.878 169.491 120.291C169.523 119.704 169.539 119.128 169.539 118.563V117.347ZM184.098 116.691H186.242V127.283H184.098V116.691ZM185.65 120.819H188.21V122.563H185.65V120.819ZM179.986 117.795H182.242C182.242 119.139 181.975 120.339 181.442 121.395C180.908 122.451 180.13 123.352 179.106 124.099C178.092 124.846 176.844 125.432 175.362 125.859L174.482 124.179C175.687 123.838 176.695 123.4 177.506 122.867C178.327 122.334 178.946 121.726 179.362 121.043C179.778 120.36 179.986 119.624 179.986 118.835V117.795ZM175.122 117.795H181.122V119.491H175.122V117.795ZM176.674 129.539H186.754V131.251H176.674V129.539ZM176.674 126.211H178.802V130.307H176.674V126.211ZM196.016 116.883C197.702 116.883 199.014 117.102 199.952 117.539C200.902 117.976 201.376 118.606 201.376 119.427C201.376 120.238 200.902 120.862 199.952 121.299C199.014 121.736 197.702 121.955 196.016 121.955C194.32 121.955 192.998 121.736 192.048 121.299C191.11 120.862 190.64 120.238 190.64 119.427C190.64 118.606 191.11 117.976 192.048 117.539C192.998 117.102 194.32 116.883 196.016 116.883ZM196 118.451C195.296 118.451 194.71 118.488 194.24 118.563C193.771 118.627 193.419 118.734 193.184 118.883C192.96 119.022 192.848 119.203 192.848 119.427C192.848 119.651 192.96 119.838 193.184 119.987C193.419 120.126 193.771 120.227 194.24 120.291C194.71 120.355 195.296 120.387 196 120.387C196.715 120.387 197.307 120.355 197.776 120.291C198.246 120.227 198.592 120.126 198.816 119.987C199.04 119.838 199.152 119.651 199.152 119.427C199.152 119.203 199.04 119.022 198.816 118.883C198.592 118.734 198.246 118.627 197.776 118.563C197.307 118.488 196.715 118.451 196 118.451ZM189.296 122.643H202.704V124.323H189.296V122.643ZM190.832 125.155H201.072V128.947H192.96V130.259H190.848V127.475H198.976V126.723H190.832V125.155ZM190.848 129.795H201.472V131.411H190.848V129.795ZM211.312 119.139H213.04V119.683C213.04 120.515 212.885 121.304 212.576 122.051C212.277 122.787 211.818 123.427 211.2 123.971C210.581 124.515 209.797 124.915 208.848 125.171L207.872 123.507C208.682 123.294 209.338 122.99 209.84 122.595C210.352 122.2 210.725 121.752 210.96 121.251C211.194 120.739 211.312 120.216 211.312 119.683V119.139ZM211.712 119.139H213.44V119.683C213.44 120.174 213.557 120.659 213.792 121.139C214.037 121.608 214.41 122.03 214.912 122.403C215.413 122.776 216.058 123.064 216.848 123.267L215.904 124.915C214.954 124.67 214.17 124.291 213.552 123.779C212.933 123.256 212.469 122.643 212.16 121.939C211.861 121.235 211.712 120.483 211.712 119.683V119.139ZM208.4 118.099H216.368V119.763H208.4V118.099ZM211.312 116.627H213.44V118.883H211.312V116.627ZM217.52 116.691H219.648V125.123H217.52V116.691ZM219.072 120.003H221.616V121.747H219.072V120.003ZM213.744 126.467H215.552V126.819C215.552 127.384 215.434 127.923 215.2 128.435C214.965 128.947 214.613 129.411 214.144 129.827C213.674 130.232 213.098 130.574 212.416 130.851C211.733 131.128 210.944 131.331 210.048 131.459L209.28 129.843C210.048 129.747 210.714 129.598 211.28 129.395C211.845 129.192 212.309 128.952 212.672 128.675C213.034 128.398 213.301 128.099 213.472 127.779C213.653 127.448 213.744 127.128 213.744 126.819V126.467ZM214.224 126.467H216.016V126.819C216.016 127.128 216.106 127.443 216.288 127.763C216.469 128.072 216.741 128.371 217.104 128.659C217.477 128.936 217.941 129.182 218.496 129.395C219.05 129.608 219.706 129.763 220.464 129.859L219.712 131.475C218.816 131.358 218.026 131.155 217.344 130.867C216.661 130.579 216.085 130.227 215.616 129.811C215.157 129.395 214.81 128.931 214.576 128.419C214.341 127.907 214.224 127.374 214.224 126.819V126.467ZM209.92 125.747H219.84V127.427H209.92V125.747ZM226.687 117.699C227.444 117.699 228.111 117.918 228.687 118.355C229.273 118.782 229.732 119.395 230.062 120.195C230.404 120.984 230.575 121.918 230.575 122.995C230.575 124.083 230.404 125.027 230.062 125.827C229.732 126.616 229.273 127.23 228.687 127.667C228.111 128.094 227.444 128.307 226.687 128.307C225.929 128.307 225.257 128.094 224.671 127.667C224.084 127.23 223.62 126.616 223.279 125.827C222.948 125.027 222.783 124.083 222.783 122.995C222.783 121.918 222.948 120.984 223.279 120.195C223.62 119.395 224.084 118.782 224.671 118.355C225.257 117.918 225.929 117.699 226.687 117.699ZM226.687 119.635C226.324 119.635 225.999 119.763 225.711 120.019C225.433 120.275 225.215 120.654 225.055 121.155C224.905 121.646 224.831 122.259 224.831 122.995C224.831 123.72 224.905 124.339 225.055 124.851C225.215 125.352 225.433 125.731 225.711 125.987C225.999 126.243 226.324 126.371 226.687 126.371C227.049 126.371 227.369 126.243 227.647 125.987C227.924 125.731 228.137 125.352 228.287 124.851C228.447 124.339 228.527 123.72 228.527 122.995C228.527 122.259 228.447 121.646 228.287 121.155C228.137 120.654 227.924 120.275 227.647 120.019C227.369 119.763 227.049 119.635 226.687 119.635ZM232.175 116.691H234.319V131.507H232.175V116.691ZM233.855 122.275H236.463V124.019H233.855V122.275ZM237.437 128.051H250.861V129.779H237.437V128.051ZM243.069 124.883H245.181V128.467H243.069V124.883ZM238.845 117.619H240.973V119.907H247.277V117.619H249.389V125.331H238.845V117.619ZM240.973 121.571V123.635H247.277V121.571H240.973ZM257.98 121.667H260.444V123.395H257.98V121.667ZM254.828 117.971H256.444V120.451C256.444 121.294 256.385 122.12 256.268 122.931C256.151 123.742 255.959 124.504 255.692 125.219C255.436 125.934 255.095 126.579 254.668 127.155C254.252 127.72 253.745 128.184 253.148 128.547L251.868 126.947C252.423 126.616 252.887 126.211 253.26 125.731C253.633 125.251 253.937 124.723 254.172 124.147C254.407 123.571 254.572 122.974 254.668 122.355C254.775 121.726 254.828 121.091 254.828 120.451V117.971ZM255.292 117.971H256.876V120.355C256.876 120.963 256.919 121.566 257.004 122.163C257.1 122.76 257.249 123.331 257.452 123.875C257.655 124.419 257.921 124.92 258.252 125.379C258.593 125.838 259.02 126.232 259.532 126.563L258.364 128.227C257.788 127.864 257.297 127.406 256.892 126.851C256.497 126.286 256.183 125.651 255.948 124.947C255.713 124.243 255.543 123.502 255.436 122.723C255.34 121.944 255.292 121.155 255.292 120.355V117.971ZM262.844 116.675H264.876V131.491H262.844V116.675ZM259.836 116.915H261.82V130.835H259.836V116.915ZM269.819 124.211H271.947V128.355H269.819V124.211ZM275.195 124.211H277.323V128.355H275.195V124.211ZM266.875 128.051H280.299V129.779H266.875V128.051ZM273.563 117.411C274.629 117.411 275.579 117.576 276.411 117.907C277.253 118.238 277.909 118.702 278.379 119.299C278.859 119.886 279.099 120.584 279.099 121.395C279.099 122.195 278.859 122.894 278.379 123.491C277.909 124.078 277.253 124.536 276.411 124.867C275.579 125.198 274.629 125.363 273.563 125.363C272.507 125.363 271.557 125.198 270.715 124.867C269.883 124.536 269.227 124.078 268.747 123.491C268.267 122.894 268.027 122.195 268.027 121.395C268.027 120.584 268.267 119.886 268.747 119.299C269.227 118.702 269.883 118.238 270.715 117.907C271.557 117.576 272.507 117.411 273.563 117.411ZM273.563 119.059C272.88 119.059 272.277 119.155 271.755 119.347C271.243 119.528 270.843 119.79 270.555 120.131C270.267 120.472 270.123 120.894 270.123 121.395C270.123 121.875 270.267 122.291 270.555 122.643C270.843 122.984 271.243 123.251 271.755 123.443C272.277 123.624 272.88 123.715 273.563 123.715C274.256 123.715 274.859 123.624 275.371 123.443C275.893 123.251 276.293 122.984 276.571 122.643C276.859 122.291 277.003 121.875 277.003 121.395C277.003 120.894 276.859 120.472 276.571 120.131C276.293 119.79 275.893 119.528 275.371 119.347C274.859 119.155 274.256 119.059 273.563 119.059ZM284.511 118.447L284.324 126.663H282.494L282.312 118.447H284.511ZM283.409 130.208C283.064 130.208 282.769 130.087 282.523 129.844C282.28 129.602 282.159 129.306 282.159 128.958C282.159 128.617 282.28 128.325 282.523 128.083C282.769 127.841 283.064 127.719 283.409 127.719C283.746 127.719 284.038 127.841 284.284 128.083C284.534 128.325 284.659 128.617 284.659 128.958C284.659 129.189 284.6 129.399 284.483 129.589C284.369 129.778 284.218 129.93 284.028 130.043C283.843 130.153 283.636 130.208 283.409 130.208Z" fill="#AFAFAF"/>
</svg>
