<svg width="24" height="24" viewBox="0 0 24 24" fill="none" xmlns="http://www.w3.org/2000/svg">
<path d="M7.84668 15.2129C8.88977 15.3189 9.73372 16.0931 9.94727 17.1006H20V18.1006H9.94824C9.71798 19.1857 8.75523 19.9998 7.60156 20L7.35547 19.9883C6.31258 19.8822 5.46855 19.1079 5.25488 18.1006H4V17.1006H5.25391C5.48401 16.015 6.44753 15.2002 7.60156 15.2002L7.84668 15.2129ZM7.60156 16.2002C6.82842 16.2002 6.20117 16.8273 6.20117 17.6006C6.20136 18.3738 6.82854 19 7.60156 19C8.37441 18.9998 9.00078 18.3736 9.00098 17.6006C9.00098 16.8274 8.37453 16.2004 7.60156 16.2002ZM15.8467 9.61328C16.8894 9.71926 17.7334 10.493 17.9473 11.5H20V12.5H17.9482C17.7183 13.5856 16.7556 14.4002 15.6016 14.4004L15.3555 14.3887C14.3123 14.2826 13.4682 13.5077 13.2549 12.5H4V11.5H13.2549C13.4854 10.415 14.4479 9.60059 15.6016 9.60059L15.8467 9.61328ZM15.6016 10.6006C14.8284 10.6006 14.2012 11.2276 14.2012 12.001C14.2014 12.7742 14.8285 13.4004 15.6016 13.4004C16.3744 13.4002 17.0008 12.774 17.001 12.001C17.001 11.2278 16.3745 10.6008 15.6016 10.6006ZM12.6455 4.0127C13.6886 4.1187 14.5325 4.89296 14.7461 5.90039H20V6.90039H14.7471C14.5168 7.98555 13.5541 8.79962 12.4004 8.7998L12.1543 8.78809C11.1114 8.68204 10.2673 7.90772 10.0537 6.90039H4V5.90039H10.0527C10.2829 4.81482 11.2464 4 12.4004 4L12.6455 4.0127ZM12.4004 5C11.6272 5 11 5.62706 11 6.40039C11.0001 7.1736 11.6273 7.7998 12.4004 7.7998C13.1733 7.79959 13.7997 7.17347 13.7998 6.40039C13.7998 5.62719 13.1734 5.00021 12.4004 5Z" fill="#444444"/>
</svg>
