<svg width="296" height="153" viewBox="0 0 296 153" fill="none" xmlns="http://www.w3.org/2000/svg">
<path d="M37.3672 20C35.1581 20 33.3672 21.7909 33.3672 24V70.1426C34.9962 66.6262 40.738 60.2466 51.8887 58H127.367C129.576 58 131.367 56.2091 131.367 54V24C131.367 21.7909 129.576 20 127.367 20H37.3672Z" fill="#E6E6E6"/>
<path d="M232.897 34.8154C234.937 34.8154 236.59 36.4686 236.59 38.5078V102.011L236.633 102V129C233.914 125.663 225.128 119.924 208.586 116.97H108.282C106.243 116.97 104.59 115.316 104.59 113.277V38.5078C104.59 36.4686 106.243 34.8154 108.282 34.8154H232.897Z" fill="#048CFC"/>
<path d="M115.412 74.2102V66.9631H117.278V67.6364H116.224V73.5369H117.278V74.2102H115.412ZM119.755 66.952H120.443V68.152C120.443 68.5947 120.395 69.0213 120.299 69.432C120.203 69.8427 120.062 70.2267 119.875 70.584C119.694 70.9413 119.473 71.256 119.211 71.528C118.955 71.8 118.662 72.016 118.331 72.176L117.827 71.488C118.121 71.3547 118.385 71.1733 118.619 70.944C118.859 70.7093 119.062 70.4427 119.227 70.144C119.398 69.8453 119.529 69.5253 119.619 69.184C119.71 68.8427 119.755 68.4987 119.755 68.152V66.952ZM119.907 66.952H120.595V68.152C120.595 68.488 120.638 68.8187 120.723 69.144C120.814 69.4693 120.942 69.776 121.107 70.064C121.273 70.352 121.473 70.6053 121.707 70.824C121.942 71.0427 122.201 71.2187 122.483 71.352L121.995 72.024C121.67 71.8693 121.379 71.6613 121.123 71.4C120.867 71.1387 120.649 70.8373 120.467 70.496C120.286 70.1547 120.147 69.784 120.051 69.384C119.955 68.984 119.907 68.5733 119.907 68.152V66.952ZM123.067 66.344H123.907V73.672H123.067V66.344ZM130.115 66.352H130.955V71.64H130.115V66.352ZM130.707 68.488H131.987V69.176H130.707V68.488ZM128.099 66.904H128.995C128.995 67.5493 128.859 68.1307 128.587 68.648C128.315 69.1653 127.923 69.6107 127.411 69.984C126.904 70.3573 126.293 70.6507 125.579 70.864L125.227 70.192C125.835 70.016 126.352 69.784 126.779 69.496C127.211 69.208 127.539 68.8773 127.763 68.504C127.987 68.1307 128.099 67.728 128.099 67.296V66.904ZM125.539 66.904H128.539V67.584H125.539V66.904ZM126.323 72.832H131.243V73.512H126.323V72.832ZM126.323 71.104H127.163V73.128H126.323V71.104ZM134.353 66.4688V73.7159H132.487V73.0426H133.54V67.142H132.487V66.4688H134.353ZM137.942 73V72.3636L139.911 70.3239C140.121 70.1023 140.295 69.9081 140.431 69.7415C140.569 69.5729 140.673 69.4129 140.741 69.2614C140.809 69.1098 140.843 68.9489 140.843 68.7784C140.843 68.5852 140.798 68.4186 140.707 68.2784C140.616 68.1364 140.492 68.0275 140.335 67.9517C140.177 67.8741 140 67.8352 139.803 67.8352C139.595 67.8352 139.413 67.8778 139.258 67.9631C139.103 68.0483 138.983 68.1686 138.9 68.3239C138.817 68.4792 138.775 68.661 138.775 68.8693H137.937C137.937 68.5152 138.018 68.2055 138.181 67.9403C138.344 67.6752 138.567 67.4697 138.852 67.3239C139.136 67.1761 139.459 67.1023 139.82 67.1023C140.186 67.1023 140.508 67.1752 140.786 67.321C141.067 67.465 141.285 67.6619 141.442 67.9119C141.6 68.16 141.678 68.4403 141.678 68.7528C141.678 68.9688 141.638 69.1799 141.556 69.3864C141.477 69.5928 141.337 69.8229 141.138 70.0767C140.94 70.3286 140.663 70.6345 140.309 70.9943L139.153 72.2045V72.2472H141.772V73H137.942ZM145.076 66.9091L143.201 73.875H142.442L144.317 66.9091H145.076ZM147.817 73.0795C147.558 73.0758 147.302 73.0284 147.05 72.9375C146.8 72.8466 146.573 72.6951 146.369 72.483C146.164 72.2708 146 71.9858 145.877 71.6278C145.756 71.2699 145.695 70.8229 145.695 70.2869C145.695 69.7794 145.746 69.3286 145.846 68.9347C145.948 68.5407 146.095 68.2083 146.286 67.9375C146.478 67.6648 146.709 67.4574 146.979 67.3153C147.25 67.1733 147.554 67.1023 147.891 67.1023C148.238 67.1023 148.546 67.1705 148.815 67.3068C149.084 67.4432 149.301 67.6316 149.468 67.8722C149.637 68.1127 149.744 68.3864 149.789 68.6932H148.923C148.864 68.4508 148.747 68.2528 148.573 68.0994C148.399 67.946 148.172 67.8693 147.891 67.8693C147.465 67.8693 147.133 68.0549 146.894 68.4261C146.657 68.7973 146.538 69.3134 146.536 69.9744H146.579C146.679 69.8097 146.802 69.6695 146.948 69.554C147.096 69.4366 147.261 69.3466 147.442 69.2841C147.626 69.2197 147.819 69.1875 148.022 69.1875C148.359 69.1875 148.664 69.2699 148.937 69.4347C149.211 69.5975 149.43 69.8229 149.593 70.1108C149.756 70.3987 149.837 70.7282 149.837 71.0994C149.837 71.4706 149.753 71.8068 149.585 72.108C149.418 72.4091 149.183 72.6477 148.88 72.8239C148.577 72.9981 148.223 73.0833 147.817 73.0795ZM147.815 72.3409C148.038 72.3409 148.238 72.286 148.414 72.1761C148.59 72.0663 148.729 71.9186 148.832 71.733C148.934 71.5473 148.985 71.34 148.985 71.1108C148.985 70.8873 148.935 70.6837 148.835 70.5C148.736 70.3163 148.6 70.1705 148.425 70.0625C148.253 69.9545 148.056 69.9006 147.835 69.9006C147.666 69.9006 147.51 69.9328 147.366 69.9972C147.224 70.0616 147.099 70.1506 146.991 70.2642C146.883 70.3778 146.798 70.5085 146.735 70.6562C146.674 70.8021 146.644 70.9564 146.644 71.1193C146.644 71.3371 146.694 71.5388 146.795 71.7244C146.897 71.91 147.036 72.0597 147.212 72.1733C147.39 72.285 147.591 72.3409 147.815 72.3409ZM151.131 70.0909C151.131 69.3788 151.224 68.7235 151.412 68.125C151.599 67.5265 151.873 66.9744 152.233 66.4688H153.011C152.871 66.6562 152.741 66.8864 152.619 67.1591C152.498 67.4318 152.392 67.7311 152.301 68.0568C152.21 68.3807 152.139 68.7169 152.088 69.0653C152.037 69.4119 152.011 69.7538 152.011 70.0909C152.011 70.5417 152.056 70.9981 152.145 71.4602C152.234 71.9223 152.354 72.3513 152.506 72.7472C152.657 73.143 152.826 73.4659 153.011 73.7159H152.233C151.873 73.2102 151.599 72.6581 151.412 72.0597C151.224 71.4612 151.131 70.8049 151.131 70.0909ZM154.536 66.704H159.208V67.384H154.536V66.704ZM153.704 69.368H160.328V70.048H153.704V69.368ZM158.68 66.704H159.504V67.264C159.504 67.5787 159.493 67.92 159.472 68.288C159.456 68.6507 159.392 69.0773 159.28 69.568L158.448 69.544C158.565 69.0587 158.632 68.6347 158.648 68.272C158.669 67.9093 158.68 67.5733 158.68 67.264V66.704ZM154.504 70.936H159.504V73.568H154.504V70.936ZM158.688 71.6H155.32V72.904H158.688V71.6ZM162.9 70.0909C162.9 70.8049 162.806 71.4612 162.619 72.0597C162.431 72.6581 162.157 73.2102 161.798 73.7159H161.019C161.159 73.5284 161.29 73.2983 161.411 73.0256C161.532 72.7528 161.638 72.4545 161.729 72.1307C161.82 71.8049 161.891 71.4678 161.942 71.1193C161.994 70.7708 162.019 70.428 162.019 70.0909C162.019 69.642 161.975 69.1866 161.886 68.7244C161.797 68.2623 161.676 67.8333 161.525 67.4375C161.373 67.0417 161.205 66.7188 161.019 66.4688H161.798C162.157 66.9744 162.431 67.5265 162.619 68.125C162.806 68.7235 162.9 69.3788 162.9 70.0909ZM168.603 67.1818V73H167.722V68.0625H167.688L166.296 68.9716V68.1307L167.748 67.1818H168.603ZM170.373 73L172.913 67.9773V67.9347H169.975V67.1818H173.822V67.9602L171.29 73H170.373ZM177.392 69.7216V70.4602H174.812V69.7216H177.392ZM180.72 67.1818V73H179.839V68.0625H179.805L178.413 68.9716V68.1307L179.865 67.1818H180.72ZM184.229 67.1023C184.488 67.1042 184.744 67.1515 184.996 67.2443C185.248 67.3371 185.475 67.4886 185.678 67.6989C185.882 67.9091 186.045 68.1932 186.166 68.5511C186.289 68.9072 186.352 69.3504 186.354 69.8807C186.354 70.3902 186.303 70.8437 186.2 71.2415C186.098 71.6373 185.951 71.9716 185.76 72.2443C185.571 72.517 185.34 72.7244 185.07 72.8665C184.799 73.0085 184.494 73.0795 184.155 73.0795C183.808 73.0795 183.5 73.0114 183.232 72.875C182.963 72.7386 182.744 72.5502 182.575 72.3097C182.407 72.0672 182.302 71.7888 182.26 71.4744H183.126C183.183 71.7244 183.299 71.9271 183.473 72.0824C183.649 72.2358 183.876 72.3125 184.155 72.3125C184.581 72.3125 184.913 72.1269 185.152 71.7557C185.391 71.3826 185.511 70.8617 185.513 70.1932H185.467C185.369 70.3561 185.246 70.4962 185.098 70.6136C184.952 70.7311 184.788 70.822 184.607 70.8864C184.425 70.9508 184.231 70.983 184.024 70.983C183.689 70.983 183.384 70.9006 183.109 70.7358C182.835 70.571 182.616 70.3447 182.453 70.0568C182.29 69.7689 182.209 69.4403 182.209 69.071C182.209 68.7036 182.292 68.3703 182.459 68.071C182.627 67.7718 182.862 67.535 183.163 67.3608C183.466 67.1847 183.821 67.0985 184.229 67.1023ZM184.232 67.8409C184.01 67.8409 183.81 67.8958 183.632 68.0057C183.456 68.1136 183.317 68.2604 183.214 68.446C183.112 68.6297 183.061 68.8343 183.061 69.0597C183.061 69.285 183.11 69.4896 183.209 69.6733C183.309 69.8551 183.446 70 183.618 70.108C183.792 70.214 183.991 70.267 184.214 70.267C184.381 70.267 184.536 70.2348 184.68 70.1705C184.824 70.1061 184.95 70.017 185.058 69.9034C185.166 69.7879 185.25 69.6572 185.311 69.5114C185.372 69.3655 185.402 69.2121 185.402 69.0511C185.402 68.8371 185.351 68.6383 185.249 68.4545C185.148 68.2708 185.01 68.1231 184.834 68.0114C184.658 67.8977 184.457 67.8409 184.232 67.8409ZM189.052 66.952H189.74V68.152C189.74 68.5947 189.692 69.0213 189.596 69.432C189.5 69.8427 189.359 70.2267 189.172 70.584C188.991 70.9413 188.77 71.256 188.508 71.528C188.252 71.8 187.959 72.016 187.628 72.176L187.124 71.488C187.418 71.3547 187.682 71.1733 187.916 70.944C188.156 70.7093 188.359 70.4427 188.524 70.144C188.695 69.8453 188.826 69.5253 188.916 69.184C189.007 68.8427 189.052 68.4987 189.052 68.152V66.952ZM189.204 66.952H189.892V68.152C189.892 68.488 189.935 68.8187 190.02 69.144C190.111 69.4693 190.239 69.776 190.404 70.064C190.57 70.352 190.77 70.6053 191.004 70.824C191.239 71.0427 191.498 71.2187 191.78 71.352L191.292 72.024C190.967 71.8693 190.676 71.6613 190.42 71.4C190.164 71.1387 189.946 70.8373 189.764 70.496C189.583 70.1547 189.444 69.784 189.348 69.384C189.252 68.984 189.204 68.5733 189.204 68.152V66.952ZM192.364 66.344H193.204V73.672H192.364V66.344ZM115.412 88.2102V80.9631H117.278V81.6364H116.224V87.5369H117.278V88.2102H115.412ZM119.611 81.144H120.299V81.68C120.299 82.1333 120.219 82.56 120.059 82.96C119.899 83.36 119.667 83.7093 119.363 84.008C119.059 84.3013 118.689 84.5253 118.251 84.68L117.827 84.016C118.211 83.8827 118.537 83.696 118.803 83.456C119.07 83.216 119.27 82.944 119.403 82.64C119.542 82.3307 119.611 82.0107 119.611 81.68V81.144ZM119.779 81.144H120.459V81.68C120.459 81.9787 120.526 82.2667 120.659 82.544C120.793 82.8213 120.987 83.0693 121.243 83.288C121.499 83.5013 121.811 83.6667 122.179 83.784L121.779 84.44C121.347 84.3013 120.982 84.096 120.683 83.824C120.39 83.552 120.166 83.232 120.011 82.864C119.857 82.4907 119.779 82.096 119.779 81.68V81.144ZM118.059 80.864H121.987V81.544H118.059V80.864ZM122.763 80.352H123.595V84.72H122.763V80.352ZM123.371 82.128H124.627V82.816H123.371V82.128ZM121.243 84.888C121.745 84.888 122.177 84.944 122.539 85.056C122.902 85.1627 123.182 85.32 123.379 85.528C123.577 85.7307 123.675 85.976 123.675 86.264C123.675 86.5573 123.577 86.8053 123.379 87.008C123.182 87.216 122.902 87.3733 122.539 87.48C122.177 87.592 121.745 87.648 121.243 87.648C120.742 87.648 120.307 87.592 119.939 87.48C119.577 87.3733 119.297 87.216 119.099 87.008C118.907 86.8053 118.811 86.5573 118.811 86.264C118.811 85.976 118.907 85.7307 119.099 85.528C119.297 85.32 119.577 85.1627 119.939 85.056C120.307 84.944 120.742 84.888 121.243 84.888ZM121.243 85.552C120.907 85.552 120.619 85.5787 120.379 85.632C120.139 85.6853 119.955 85.7653 119.827 85.872C119.699 85.9787 119.635 86.1093 119.635 86.264C119.635 86.424 119.699 86.56 119.827 86.672C119.955 86.7787 120.139 86.8613 120.379 86.92C120.619 86.9733 120.907 87 121.243 87C121.585 87 121.873 86.9733 122.107 86.92C122.347 86.8613 122.531 86.7787 122.659 86.672C122.787 86.56 122.851 86.424 122.851 86.264C122.851 86.1093 122.787 85.9787 122.659 85.872C122.531 85.7653 122.347 85.6853 122.107 85.632C121.873 85.5787 121.585 85.552 121.243 85.552ZM125.251 86.064H131.875V86.752H125.251V86.064ZM128.115 84.352H128.947V86.264H128.115V84.352ZM128.083 80.8H128.819V81.352C128.819 81.6613 128.768 81.96 128.667 82.248C128.571 82.5307 128.429 82.7947 128.243 83.04C128.061 83.2853 127.845 83.5067 127.595 83.704C127.344 83.9013 127.067 84.0693 126.763 84.208C126.464 84.3467 126.149 84.448 125.819 84.512L125.467 83.808C125.755 83.76 126.029 83.68 126.291 83.568C126.552 83.456 126.792 83.32 127.011 83.16C127.229 83 127.419 82.824 127.579 82.632C127.739 82.4347 127.861 82.2293 127.947 82.016C128.037 81.7973 128.083 81.576 128.083 81.352V80.8ZM128.243 80.8H128.971V81.352C128.971 81.576 129.016 81.7973 129.107 82.016C129.197 82.2347 129.323 82.44 129.483 82.632C129.643 82.824 129.832 83.0027 130.051 83.168C130.269 83.328 130.509 83.464 130.771 83.576C131.032 83.6827 131.309 83.76 131.603 83.808L131.243 84.512C130.912 84.448 130.595 84.3467 130.291 84.208C129.992 84.0693 129.717 83.904 129.467 83.712C129.216 83.5147 128.997 83.2933 128.811 83.048C128.629 82.7973 128.488 82.5307 128.387 82.248C128.291 81.96 128.243 81.6613 128.243 81.352V80.8ZM134.353 80.9631V88.2102H132.487V87.5369H133.54V81.6364H132.487V80.9631H134.353ZM142.927 80.344H143.767V87.672H142.927V80.344ZM139.879 80.88C140.241 80.88 140.564 80.9867 140.847 81.2C141.135 81.4133 141.359 81.712 141.519 82.096C141.679 82.48 141.759 82.9333 141.759 83.456C141.759 83.984 141.679 84.4427 141.519 84.832C141.359 85.216 141.135 85.5147 140.847 85.728C140.564 85.936 140.241 86.04 139.879 86.04C139.516 86.04 139.191 85.936 138.903 85.728C138.62 85.5147 138.396 85.216 138.231 84.832C138.071 84.4427 137.991 83.984 137.991 83.456C137.991 82.9333 138.071 82.48 138.231 82.096C138.396 81.712 138.62 81.4133 138.903 81.2C139.191 80.9867 139.516 80.88 139.879 80.88ZM139.879 81.64C139.665 81.64 139.476 81.712 139.311 81.856C139.151 82 139.025 82.208 138.935 82.48C138.844 82.752 138.799 83.0773 138.799 83.456C138.799 83.84 138.844 84.168 138.935 84.44C139.025 84.712 139.151 84.9227 139.311 85.072C139.476 85.216 139.665 85.288 139.879 85.288C140.092 85.288 140.279 85.216 140.439 85.072C140.599 84.9227 140.724 84.712 140.815 84.44C140.905 84.168 140.951 83.84 140.951 83.456C140.951 83.0773 140.905 82.752 140.815 82.48C140.724 82.208 140.599 82 140.439 81.856C140.279 81.712 140.092 81.64 139.879 81.64ZM147.974 80.584H148.71V80.968C148.71 81.2453 148.662 81.512 148.566 81.768C148.47 82.0187 148.332 82.2507 148.15 82.464C147.974 82.6773 147.761 82.8693 147.51 83.04C147.265 83.2107 146.993 83.3547 146.694 83.472C146.396 83.584 146.076 83.6667 145.734 83.72L145.406 83.048C145.705 83.0053 145.982 82.9387 146.238 82.848C146.5 82.752 146.737 82.6373 146.95 82.504C147.164 82.3653 147.345 82.2133 147.494 82.048C147.649 81.8827 147.766 81.7093 147.846 81.528C147.932 81.3467 147.974 81.16 147.974 80.968V80.584ZM148.134 80.584H148.862V80.968C148.862 81.1547 148.902 81.3387 148.982 81.52C149.068 81.7013 149.188 81.8747 149.342 82.04C149.497 82.2053 149.681 82.3573 149.894 82.496C150.108 82.6293 150.342 82.744 150.598 82.84C150.86 82.936 151.137 83.0053 151.43 83.048L151.102 83.72C150.766 83.6667 150.449 83.5813 150.15 83.464C149.852 83.3467 149.577 83.2027 149.326 83.032C149.081 82.8613 148.868 82.6693 148.686 82.456C148.51 82.2427 148.374 82.0107 148.278 81.76C148.182 81.5093 148.134 81.2453 148.134 80.968V80.584ZM147.982 84.92H148.814V87.664H147.982V84.92ZM145.11 84.4H151.718V85.088H145.11V84.4ZM159.912 84.0909C159.912 84.7121 159.798 85.2462 159.571 85.6932C159.344 86.1383 159.032 86.4811 158.636 86.7216C158.242 86.9602 157.795 87.0795 157.293 87.0795C156.789 87.0795 156.339 86.9602 155.943 86.7216C155.549 86.4811 155.239 86.1373 155.011 85.6903C154.784 85.2434 154.67 84.7102 154.67 84.0909C154.67 83.4697 154.784 82.9366 155.011 82.4915C155.239 82.0445 155.549 81.7017 155.943 81.4631C156.339 81.2225 156.789 81.1023 157.293 81.1023C157.795 81.1023 158.242 81.2225 158.636 81.4631C159.032 81.7017 159.344 82.0445 159.571 82.4915C159.798 82.9366 159.912 83.4697 159.912 84.0909ZM159.043 84.0909C159.043 83.6174 158.966 83.2187 158.812 82.8949C158.661 82.5691 158.453 82.3229 158.188 82.1562C157.924 81.9877 157.626 81.9034 157.293 81.9034C156.957 81.9034 156.658 81.9877 156.395 82.1562C156.132 82.3229 155.923 82.5691 155.77 82.8949C155.618 83.2187 155.543 83.6174 155.543 84.0909C155.543 84.5644 155.618 84.964 155.77 85.2898C155.923 85.6136 156.132 85.8598 156.395 86.0284C156.658 86.1951 156.957 86.2784 157.293 86.2784C157.626 86.2784 157.924 86.1951 158.188 86.0284C158.453 85.8598 158.661 85.6136 158.812 85.2898C158.966 84.964 159.043 84.5644 159.043 84.0909ZM166.06 84.0909C166.06 84.7121 165.947 85.2462 165.719 85.6932C165.492 86.1383 165.181 86.4811 164.785 86.7216C164.391 86.9602 163.943 87.0795 163.441 87.0795C162.937 87.0795 162.487 86.9602 162.092 86.7216C161.698 86.4811 161.387 86.1373 161.16 85.6903C160.933 85.2434 160.819 84.7102 160.819 84.0909C160.819 83.4697 160.933 82.9366 161.16 82.4915C161.387 82.0445 161.698 81.7017 162.092 81.4631C162.487 81.2225 162.937 81.1023 163.441 81.1023C163.943 81.1023 164.391 81.2225 164.785 81.4631C165.181 81.7017 165.492 82.0445 165.719 82.4915C165.947 82.9366 166.06 83.4697 166.06 84.0909ZM165.191 84.0909C165.191 83.6174 165.114 83.2187 164.961 82.8949C164.809 82.5691 164.601 82.3229 164.336 82.1562C164.073 81.9877 163.774 81.9034 163.441 81.9034C163.106 81.9034 162.807 81.9877 162.543 82.1562C162.28 82.3229 162.072 82.5691 161.918 82.8949C161.767 83.2187 161.691 83.6174 161.691 84.0909C161.691 84.5644 161.767 84.964 161.918 85.2898C162.072 85.6136 162.28 85.8598 162.543 86.0284C162.807 86.1951 163.106 86.2784 163.441 86.2784C163.774 86.2784 164.073 86.1951 164.336 86.0284C164.601 85.8598 164.809 85.6136 164.961 85.2898C165.114 84.964 165.191 84.5644 165.191 84.0909ZM171.756 80.352H172.588V84.608H171.756V80.352ZM172.244 82.168H173.62V82.864H172.244V82.168ZM167.924 84.92H168.756V85.592H171.764V84.92H172.588V87.568H167.924V84.92ZM168.756 86.232V86.904H171.764V86.232H168.756ZM166.892 81.048H171.204V81.72H166.892V81.048ZM169.052 81.992C169.404 81.992 169.71 82.0453 169.972 82.152C170.238 82.2533 170.446 82.4027 170.596 82.6C170.745 82.792 170.82 83.016 170.82 83.272C170.82 83.5333 170.745 83.7627 170.596 83.96C170.446 84.152 170.238 84.3013 169.972 84.408C169.71 84.5147 169.404 84.568 169.052 84.568C168.7 84.568 168.39 84.5147 168.124 84.408C167.857 84.3013 167.649 84.152 167.5 83.96C167.35 83.7627 167.276 83.5333 167.276 83.272C167.276 83.016 167.35 82.792 167.5 82.6C167.649 82.4027 167.857 82.2533 168.124 82.152C168.39 82.0453 168.7 81.992 169.052 81.992ZM169.052 82.608C168.758 82.608 168.521 82.6693 168.34 82.792C168.164 82.9093 168.076 83.072 168.076 83.28C168.076 83.488 168.164 83.6507 168.34 83.768C168.521 83.8853 168.758 83.944 169.052 83.944C169.34 83.944 169.572 83.8853 169.748 83.768C169.924 83.6507 170.012 83.488 170.012 83.28C170.012 83.072 169.924 82.9093 169.748 82.792C169.572 82.6693 169.34 82.608 169.052 82.608ZM168.628 80.288H169.468V81.416H168.628V80.288ZM177.075 81.112H177.803V81.376C177.803 81.6373 177.755 81.8853 177.659 82.12C177.568 82.3493 177.435 82.5653 177.259 82.768C177.083 82.9653 176.875 83.1413 176.635 83.296C176.4 83.4507 176.136 83.5813 175.843 83.688C175.555 83.7947 175.246 83.8747 174.915 83.928L174.603 83.264C174.891 83.2267 175.158 83.1653 175.403 83.08C175.654 82.9947 175.88 82.8907 176.083 82.768C176.291 82.6453 176.467 82.5093 176.611 82.36C176.76 82.2107 176.875 82.0533 176.955 81.888C177.035 81.7227 177.075 81.552 177.075 81.376V81.112ZM177.299 81.112H178.027V81.376C178.027 81.552 178.064 81.7227 178.139 81.888C178.219 82.0533 178.334 82.2107 178.483 82.36C178.632 82.5093 178.808 82.6453 179.011 82.768C179.214 82.8907 179.44 82.9947 179.691 83.08C179.942 83.1653 180.211 83.2267 180.499 83.264L180.187 83.928C179.856 83.8747 179.544 83.7947 179.251 83.688C178.963 83.5813 178.699 83.4507 178.459 83.296C178.219 83.1413 178.011 82.9653 177.835 82.768C177.664 82.5653 177.531 82.3493 177.435 82.12C177.344 81.8853 177.299 81.6373 177.299 81.376V81.112ZM177.115 84.92H177.947V87.656H177.115V84.92ZM174.243 84.456H180.851V85.136H174.243V84.456ZM174.851 80.768H180.235V81.432H174.851V80.768ZM186.786 80.352H187.626V84.088H186.786V80.352ZM182.834 84.44H187.626V86.296H183.674V87.184H182.85V85.688H186.802V85.096H182.834V84.44ZM182.85 86.936H187.85V87.592H182.85V86.936ZM183.418 80.544H184.114V81.096C184.114 81.544 184.032 81.968 183.866 82.368C183.706 82.7627 183.469 83.1093 183.154 83.408C182.845 83.7013 182.469 83.9227 182.026 84.072L181.61 83.408C181.904 83.312 182.162 83.184 182.386 83.024C182.61 82.864 182.797 82.6827 182.946 82.48C183.101 82.272 183.218 82.0507 183.298 81.816C183.378 81.5813 183.418 81.3413 183.418 81.096V80.544ZM183.586 80.544H184.266V81.096C184.266 81.3307 184.306 81.56 184.386 81.784C184.472 82.008 184.589 82.2187 184.738 82.416C184.893 82.608 185.08 82.7787 185.298 82.928C185.517 83.072 185.768 83.1893 186.05 83.28L185.642 83.936C185.317 83.8293 185.026 83.6853 184.77 83.504C184.52 83.3173 184.304 83.0987 184.122 82.848C183.946 82.5973 183.813 82.3253 183.722 82.032C183.632 81.7387 183.586 81.4267 183.586 81.096V80.544ZM196.046 81.1818V87H195.239L192.282 82.733H192.228V87H191.35V81.1818H192.163L195.123 85.4545H195.177V81.1818H196.046ZM197.056 84.04H203.68V84.704H197.056V84.04ZM199.944 84.296H200.784V85.624H199.944V84.296ZM197.92 85.328H202.864V87.568H197.92V85.328ZM202.04 85.992H198.743V86.904H202.04V85.992ZM197.88 80.496H202.848V82.328H198.72V83.216H197.896V81.72H202.016V81.144H197.88V80.496ZM197.896 82.904H202.992V83.552H197.896V82.904ZM115.412 102.21V94.9631H117.278V95.6364H116.224V101.537H117.278V102.21H115.412ZM118.723 94.704H123.395V95.384H118.723V94.704ZM117.891 97.368H124.515V98.048H117.891V97.368ZM122.867 94.704H123.691V95.264C123.691 95.5787 123.681 95.92 123.659 96.288C123.643 96.6507 123.579 97.0773 123.467 97.568L122.635 97.544C122.753 97.0587 122.819 96.6347 122.835 96.272C122.857 95.9093 122.867 95.5733 122.867 95.264V94.704ZM118.691 98.936H123.691V101.568H118.691V98.936ZM122.875 99.6H119.507V100.904H122.875V99.6ZM126.963 94.8C127.288 94.8 127.573 94.8747 127.819 95.024C128.069 95.1733 128.267 95.3813 128.411 95.648C128.56 95.9093 128.635 96.2133 128.635 96.56C128.635 96.9013 128.56 97.2053 128.411 97.472C128.267 97.7333 128.069 97.9387 127.819 98.088C127.573 98.232 127.288 98.304 126.963 98.304C126.643 98.304 126.357 98.232 126.107 98.088C125.856 97.9387 125.659 97.7333 125.515 97.472C125.371 97.2053 125.299 96.9013 125.299 96.56C125.299 96.2133 125.371 95.9093 125.515 95.648C125.659 95.3813 125.856 95.1733 126.107 95.024C126.357 94.8747 126.643 94.8 126.963 94.8ZM126.963 95.512C126.792 95.512 126.637 95.5547 126.499 95.64C126.36 95.7253 126.251 95.848 126.171 96.008C126.096 96.1627 126.059 96.3467 126.059 96.56C126.059 96.768 126.096 96.952 126.171 97.112C126.251 97.2667 126.36 97.3867 126.499 97.472C126.637 97.5573 126.792 97.6 126.963 97.6C127.139 97.6 127.293 97.5573 127.427 97.472C127.565 97.3867 127.675 97.2667 127.755 97.112C127.835 96.952 127.875 96.768 127.875 96.56C127.875 96.3467 127.835 96.1627 127.755 96.008C127.675 95.848 127.565 95.7253 127.427 95.64C127.293 95.5547 127.139 95.512 126.963 95.512ZM130.643 94.352H131.443V98.704H130.643V94.352ZM129.595 96.184H130.883V96.864H129.595V96.184ZM129.091 94.488H129.883V98.672H129.091V94.488ZM126.483 99.08H131.443V101.664H130.611V99.752H126.483V99.08ZM134.353 94.4688V101.716H132.487V101.043H133.54V95.142H132.487V94.4688H134.353ZM137.82 99.8636V99.1534L140.335 95.1818H140.894V96.2273H140.539L138.741 99.0739V99.1193H142.187V99.8636H137.82ZM140.579 101V99.6477L140.585 99.3239V95.1818H141.417V101H140.579ZM145.143 101.08C144.736 101.08 144.376 101.009 144.063 100.869C143.753 100.729 143.509 100.536 143.333 100.29C143.157 100.044 143.07 99.7633 143.072 99.4489C143.07 99.2027 143.12 98.9763 143.222 98.7699C143.326 98.5616 143.468 98.3883 143.646 98.25C143.824 98.1098 144.022 98.0208 144.242 97.983V97.9489C143.952 97.8788 143.72 97.7235 143.546 97.483C143.372 97.2424 143.286 96.9659 143.288 96.6534C143.286 96.3561 143.364 96.0909 143.523 95.858C143.684 95.6231 143.905 95.4384 144.185 95.304C144.466 95.1695 144.785 95.1023 145.143 95.1023C145.497 95.1023 145.813 95.1705 146.092 95.3068C146.372 95.4413 146.593 95.6259 146.754 95.8608C146.915 96.0937 146.996 96.358 146.998 96.6534C146.996 96.9659 146.907 97.2424 146.731 97.483C146.555 97.7235 146.326 97.8788 146.043 97.9489V97.983C146.261 98.0208 146.457 98.1098 146.631 98.25C146.808 98.3883 146.948 98.5616 147.052 98.7699C147.158 98.9763 147.212 99.2027 147.214 99.4489C147.212 99.7633 147.123 100.044 146.947 100.29C146.771 100.536 146.526 100.729 146.214 100.869C145.903 101.009 145.546 101.08 145.143 101.08ZM145.143 100.361C145.383 100.361 145.592 100.321 145.768 100.241C145.944 100.16 146.08 100.047 146.177 99.9034C146.273 99.7576 146.323 99.5871 146.325 99.392C146.323 99.1894 146.27 99.0104 146.165 98.8551C146.063 98.6998 145.924 98.5777 145.748 98.4886C145.572 98.3996 145.37 98.3551 145.143 98.3551C144.914 98.3551 144.71 98.3996 144.532 98.4886C144.354 98.5777 144.214 98.6998 144.112 98.8551C144.009 99.0104 143.959 99.1894 143.961 99.392C143.959 99.5871 144.005 99.7576 144.1 99.9034C144.197 100.047 144.334 100.16 144.512 100.241C144.69 100.321 144.9 100.361 145.143 100.361ZM145.143 97.6534C145.336 97.6534 145.507 97.6146 145.657 97.5369C145.807 97.4593 145.924 97.3513 146.009 97.2131C146.096 97.0748 146.141 96.9129 146.143 96.7273C146.141 96.5455 146.097 96.3864 146.012 96.25C145.929 96.1136 145.812 96.0085 145.663 95.9347C145.513 95.8589 145.34 95.821 145.143 95.821C144.942 95.821 144.766 95.8589 144.614 95.9347C144.465 96.0085 144.348 96.1136 144.265 96.25C144.182 96.3864 144.141 96.5455 144.143 96.7273C144.141 96.9129 144.183 97.0748 144.268 97.2131C144.353 97.3513 144.47 97.4593 144.62 97.5369C144.772 97.6146 144.946 97.6534 145.143 97.6534ZM149.176 100.205L149.134 100.514C149.105 100.741 149.057 100.978 148.989 101.224C148.922 101.473 148.853 101.703 148.781 101.915C148.711 102.127 148.653 102.295 148.608 102.42H148.006C148.03 102.303 148.064 102.144 148.108 101.943C148.152 101.744 148.194 101.522 148.236 101.276C148.277 101.029 148.309 100.778 148.33 100.523L148.358 100.205H149.176ZM152.179 101.097C151.73 101.095 151.347 100.976 151.028 100.741C150.71 100.507 150.467 100.165 150.298 99.7159C150.13 99.267 150.045 98.7263 150.045 98.0938C150.045 97.4631 150.13 96.9242 150.298 96.4773C150.469 96.0303 150.713 95.6894 151.031 95.4545C151.351 95.2197 151.734 95.1023 152.179 95.1023C152.624 95.1023 153.006 95.2206 153.324 95.4574C153.642 95.6922 153.885 96.0331 154.054 96.4801C154.224 96.9252 154.31 97.4631 154.31 98.0938C154.31 98.7282 154.225 99.2699 154.057 99.7188C153.888 100.166 153.645 100.508 153.327 100.744C153.009 100.979 152.626 101.097 152.179 101.097ZM152.179 100.338C152.573 100.338 152.881 100.146 153.102 99.7614C153.326 99.3769 153.438 98.821 153.438 98.0938C153.438 97.6108 153.386 97.2027 153.284 96.8693C153.184 96.5341 153.039 96.2803 152.849 96.108C152.662 95.9337 152.438 95.8466 152.179 95.8466C151.787 95.8466 151.479 96.0398 151.256 96.4261C151.032 96.8125 150.92 97.3684 150.918 98.0938C150.918 98.5786 150.968 98.9886 151.068 99.3239C151.17 99.6572 151.315 99.91 151.503 100.082C151.69 100.253 151.916 100.338 152.179 100.338ZM157.343 101.097C156.894 101.095 156.511 100.976 156.192 100.741C155.874 100.507 155.631 100.165 155.462 99.7159C155.294 99.267 155.21 98.7263 155.21 98.0938C155.21 97.4631 155.294 96.9242 155.462 96.4773C155.633 96.0303 155.877 95.6894 156.195 95.4545C156.515 95.2197 156.898 95.1023 157.343 95.1023C157.788 95.1023 158.17 95.2206 158.488 95.4574C158.806 95.6922 159.049 96.0331 159.218 96.4801C159.388 96.9252 159.474 97.4631 159.474 98.0938C159.474 98.7282 159.389 99.2699 159.221 99.7188C159.052 100.166 158.809 100.508 158.491 100.744C158.173 100.979 157.79 101.097 157.343 101.097ZM157.343 100.338C157.737 100.338 158.045 100.146 158.266 99.7614C158.49 99.3769 158.602 98.821 158.602 98.0938C158.602 97.6108 158.55 97.2027 158.448 96.8693C158.348 96.5341 158.203 96.2803 158.013 96.108C157.826 95.9337 157.603 95.8466 157.343 95.8466C156.951 95.8466 156.643 96.0398 156.42 96.4261C156.196 96.8125 156.084 97.3684 156.082 98.0938C156.082 98.5786 156.132 98.9886 156.232 99.3239C156.335 99.6572 156.479 99.91 156.667 100.082C156.854 100.253 157.08 100.338 157.343 100.338ZM162.507 101.097C162.058 101.095 161.675 100.976 161.357 100.741C161.038 100.507 160.795 100.165 160.626 99.7159C160.458 99.267 160.374 98.7263 160.374 98.0938C160.374 97.4631 160.458 96.9242 160.626 96.4773C160.797 96.0303 161.041 95.6894 161.359 95.4545C161.679 95.2197 162.062 95.1023 162.507 95.1023C162.952 95.1023 163.334 95.2206 163.652 95.4574C163.97 95.6922 164.214 96.0331 164.382 96.4801C164.553 96.9252 164.638 97.4631 164.638 98.0938C164.638 98.7282 164.554 99.2699 164.385 99.7188C164.216 100.166 163.973 100.508 163.655 100.744C163.337 100.979 162.954 101.097 162.507 101.097ZM162.507 100.338C162.901 100.338 163.209 100.146 163.43 99.7614C163.654 99.3769 163.766 98.821 163.766 98.0938C163.766 97.6108 163.714 97.2027 163.612 96.8693C163.512 96.5341 163.367 96.2803 163.178 96.108C162.99 95.9337 162.767 95.8466 162.507 95.8466C162.115 95.8466 161.807 96.0398 161.584 96.4261C161.36 96.8125 161.248 97.3684 161.246 98.0938C161.246 98.5786 161.296 98.9886 161.396 99.3239C161.499 99.6572 161.643 99.91 161.831 100.082C162.018 100.253 162.244 100.338 162.507 100.338ZM167.454 98.064H168.286V99.672H167.454V98.064ZM170.67 94.352H171.51V99.896H170.67V94.352ZM166.398 100.832H171.686V101.512H166.398V100.832ZM166.398 99.36H167.238V101.016H166.398V99.36ZM165.526 98.344L165.422 97.664C165.87 97.6587 166.358 97.6533 166.886 97.648C167.414 97.6373 167.953 97.6187 168.502 97.592C169.057 97.56 169.59 97.512 170.102 97.448L170.166 98.048C169.643 98.1333 169.107 98.1973 168.558 98.24C168.014 98.2827 167.483 98.3093 166.966 98.32C166.449 98.3307 165.969 98.3387 165.526 98.344ZM169.238 98.632H170.878V99.224H169.238V98.632ZM167.782 94.624C168.145 94.624 168.459 94.6773 168.726 94.784C168.998 94.8907 169.209 95.0427 169.358 95.24C169.513 95.432 169.59 95.656 169.59 95.912C169.59 96.168 169.513 96.3947 169.358 96.592C169.209 96.7893 168.998 96.9413 168.726 97.048C168.459 97.1493 168.145 97.2 167.782 97.2C167.43 97.2 167.115 97.1493 166.838 97.048C166.566 96.9413 166.353 96.7893 166.198 96.592C166.049 96.3947 165.974 96.168 165.974 95.912C165.974 95.656 166.049 95.432 166.198 95.24C166.353 95.0427 166.566 94.8907 166.838 94.784C167.115 94.6773 167.43 94.624 167.782 94.624ZM167.782 95.24C167.483 95.24 167.238 95.3013 167.046 95.424C166.859 95.5413 166.766 95.704 166.766 95.912C166.766 96.12 166.859 96.2853 167.046 96.408C167.238 96.5253 167.483 96.584 167.782 96.584C168.081 96.584 168.323 96.5253 168.51 96.408C168.697 96.2853 168.79 96.12 168.79 95.912C168.79 95.7733 168.747 95.656 168.662 95.56C168.577 95.4587 168.459 95.3813 168.31 95.328C168.161 95.2693 167.985 95.24 167.782 95.24ZM175.381 98.5852C175.381 97.8731 175.474 97.2178 175.662 96.6193C175.849 96.0208 176.123 95.4687 176.483 94.9631H177.261C177.121 95.1506 176.991 95.3807 176.869 95.6534C176.748 95.9261 176.642 96.2254 176.551 96.5511C176.46 96.875 176.389 97.2112 176.338 97.5597C176.287 97.9062 176.261 98.2481 176.261 98.5852C176.261 99.036 176.306 99.4924 176.395 99.9545C176.484 100.417 176.604 100.846 176.756 101.241C176.907 101.637 177.076 101.96 177.261 102.21H176.483C176.123 101.705 175.849 101.152 175.662 100.554C175.474 99.9555 175.381 99.2992 175.381 98.5852ZM183.138 94.352H183.978V99.656H183.138V94.352ZM179.21 100.832H184.186V101.512H179.21V100.832ZM179.21 99.12H180.042V101.096H179.21V99.12ZM180.034 94.84C180.402 94.84 180.733 94.9173 181.026 95.072C181.319 95.2267 181.551 95.4427 181.722 95.72C181.893 95.992 181.978 96.3067 181.978 96.664C181.978 97.016 181.893 97.3307 181.722 97.608C181.551 97.8853 181.319 98.1013 181.026 98.256C180.733 98.4107 180.402 98.488 180.034 98.488C179.666 98.488 179.335 98.4107 179.042 98.256C178.749 98.1013 178.517 97.8853 178.346 97.608C178.175 97.3307 178.09 97.016 178.09 96.664C178.09 96.3067 178.175 95.992 178.346 95.72C178.517 95.4427 178.749 95.2267 179.042 95.072C179.335 94.9173 179.666 94.84 180.034 94.84ZM180.034 95.568C179.821 95.568 179.629 95.6133 179.458 95.704C179.287 95.7947 179.154 95.9227 179.058 96.088C178.962 96.248 178.914 96.44 178.914 96.664C178.914 96.888 178.962 97.0827 179.058 97.248C179.154 97.408 179.287 97.5333 179.458 97.624C179.629 97.7147 179.821 97.76 180.034 97.76C180.247 97.76 180.439 97.7147 180.61 97.624C180.781 97.5333 180.914 97.408 181.01 97.248C181.111 97.0827 181.162 96.888 181.162 96.664C181.162 96.44 181.111 96.248 181.01 96.088C180.914 95.9227 180.781 95.7947 180.61 95.704C180.439 95.6133 180.247 95.568 180.034 95.568ZM190.185 94.344H191.033V98.64H190.185V94.344ZM190.793 96.168H192.049V96.864H190.793V96.168ZM188.665 98.776C189.167 98.776 189.599 98.8347 189.961 98.952C190.324 99.0693 190.604 99.2347 190.801 99.448C190.999 99.6613 191.097 99.9173 191.097 100.216C191.097 100.515 190.999 100.773 190.801 100.992C190.604 101.205 190.324 101.368 189.961 101.48C189.599 101.597 189.167 101.656 188.665 101.656C188.169 101.656 187.737 101.597 187.369 101.48C187.007 101.368 186.727 101.205 186.529 100.992C186.332 100.773 186.233 100.515 186.233 100.216C186.233 99.9173 186.332 99.6613 186.529 99.448C186.727 99.2347 187.007 99.0693 187.369 98.952C187.737 98.8347 188.169 98.776 188.665 98.776ZM188.665 99.456C188.329 99.456 188.041 99.4853 187.801 99.544C187.561 99.6027 187.377 99.688 187.249 99.8C187.121 99.912 187.057 100.051 187.057 100.216C187.057 100.381 187.121 100.523 187.249 100.64C187.377 100.752 187.561 100.837 187.801 100.896C188.041 100.955 188.329 100.984 188.665 100.984C189.001 100.984 189.289 100.955 189.529 100.896C189.775 100.837 189.959 100.752 190.081 100.64C190.209 100.523 190.273 100.381 190.273 100.216C190.273 100.051 190.209 99.912 190.081 99.8C189.959 99.688 189.775 99.6027 189.529 99.544C189.289 99.4853 189.001 99.456 188.665 99.456ZM185.601 97.472H186.193C186.716 97.472 187.164 97.4667 187.537 97.456C187.916 97.44 188.26 97.416 188.569 97.384C188.884 97.3467 189.196 97.296 189.505 97.232L189.593 97.904C189.279 97.968 188.961 98.0187 188.641 98.056C188.321 98.0933 187.967 98.1173 187.577 98.128C187.188 98.1387 186.727 98.144 186.193 98.144H185.601V97.472ZM185.601 94.872H188.849V95.552H186.433V97.92H185.601V94.872ZM197.013 101.08C196.753 101.076 196.498 101.028 196.246 100.938C195.996 100.847 195.768 100.695 195.564 100.483C195.359 100.271 195.196 99.9858 195.072 99.6278C194.951 99.2699 194.891 98.8229 194.891 98.2869C194.891 97.7794 194.941 97.3286 195.041 96.9347C195.143 96.5407 195.29 96.2083 195.482 95.9375C195.673 95.6648 195.904 95.4574 196.175 95.3153C196.446 95.1733 196.75 95.1023 197.087 95.1023C197.433 95.1023 197.741 95.1705 198.01 95.3068C198.279 95.4432 198.497 95.6316 198.663 95.8722C198.832 96.1127 198.939 96.3864 198.984 96.6932H198.118C198.059 96.4508 197.943 96.2528 197.768 96.0994C197.594 95.946 197.367 95.8693 197.087 95.8693C196.661 95.8693 196.328 96.0549 196.089 96.4261C195.853 96.7973 195.733 97.3134 195.732 97.9744H195.774C195.875 97.8097 195.998 97.6695 196.143 97.554C196.291 97.4366 196.456 97.3466 196.638 97.2841C196.821 97.2197 197.015 97.1875 197.217 97.1875C197.554 97.1875 197.859 97.2699 198.132 97.4347C198.407 97.5975 198.625 97.8229 198.788 98.1108C198.951 98.3987 199.033 98.7282 199.033 99.0994C199.033 99.4706 198.948 99.8068 198.78 100.108C198.613 100.409 198.378 100.648 198.075 100.824C197.772 100.998 197.418 101.083 197.013 101.08ZM197.01 100.341C197.233 100.341 197.433 100.286 197.609 100.176C197.786 100.066 197.925 99.9186 198.027 99.733C198.129 99.5473 198.18 99.34 198.18 99.1108C198.18 98.8873 198.13 98.6837 198.03 98.5C197.931 98.3163 197.795 98.1705 197.621 98.0625C197.448 97.9545 197.251 97.9006 197.03 97.9006C196.861 97.9006 196.705 97.9328 196.561 97.9972C196.419 98.0616 196.294 98.1506 196.186 98.2642C196.078 98.3778 195.993 98.5085 195.93 98.6562C195.87 98.8021 195.839 98.9564 195.839 99.1193C195.839 99.3371 195.89 99.5388 195.99 99.7244C196.092 99.91 196.232 100.06 196.408 100.173C196.586 100.285 196.786 100.341 197.01 100.341ZM200.918 100.205L200.876 100.514C200.847 100.741 200.799 100.978 200.731 101.224C200.665 101.473 200.595 101.703 200.523 101.915C200.453 102.127 200.396 102.295 200.35 102.42H199.748C199.772 102.303 199.807 102.144 199.85 101.943C199.894 101.744 199.936 101.522 199.978 101.276C200.02 101.029 200.051 100.778 200.072 100.523L200.1 100.205H200.918ZM203.921 101.097C203.472 101.095 203.089 100.976 202.771 100.741C202.452 100.507 202.209 100.165 202.04 99.7159C201.872 99.267 201.788 98.7263 201.788 98.0938C201.788 97.4631 201.872 96.9242 202.04 96.4773C202.211 96.0303 202.455 95.6894 202.773 95.4545C203.094 95.2197 203.476 95.1023 203.921 95.1023C204.366 95.1023 204.748 95.2206 205.066 95.4574C205.384 95.6922 205.628 96.0331 205.796 96.4801C205.967 96.9252 206.052 97.4631 206.052 98.0938C206.052 98.7282 205.968 99.2699 205.799 99.7188C205.63 100.166 205.387 100.508 205.069 100.744C204.751 100.979 204.368 101.097 203.921 101.097ZM203.921 100.338C204.315 100.338 204.623 100.146 204.844 99.7614C205.068 99.3769 205.18 98.821 205.18 98.0938C205.18 97.6108 205.129 97.2027 205.026 96.8693C204.926 96.5341 204.781 96.2803 204.592 96.108C204.404 95.9337 204.181 95.8466 203.921 95.8466C203.529 95.8466 203.221 96.0398 202.998 96.4261C202.774 96.8125 202.662 97.3684 202.66 98.0938C202.66 98.5786 202.71 98.9886 202.81 99.3239C202.913 99.6572 203.058 99.91 203.245 100.082C203.433 100.253 203.658 100.338 203.921 100.338ZM209.085 101.097C208.636 101.095 208.253 100.976 207.935 100.741C207.616 100.507 207.373 100.165 207.205 99.7159C207.036 99.267 206.952 98.7263 206.952 98.0938C206.952 97.4631 207.036 96.9242 207.205 96.4773C207.375 96.0303 207.619 95.6894 207.938 95.4545C208.258 95.2197 208.64 95.1023 209.085 95.1023C209.53 95.1023 209.912 95.2206 210.23 95.4574C210.548 95.6922 210.792 96.0331 210.96 96.4801C211.131 96.9252 211.216 97.4631 211.216 98.0938C211.216 98.7282 211.132 99.2699 210.963 99.7188C210.795 100.166 210.551 100.508 210.233 100.744C209.915 100.979 209.532 101.097 209.085 101.097ZM209.085 100.338C209.479 100.338 209.787 100.146 210.009 99.7614C210.232 99.3769 210.344 98.821 210.344 98.0938C210.344 97.6108 210.293 97.2027 210.19 96.8693C210.09 96.5341 209.945 96.2803 209.756 96.108C209.568 95.9337 209.345 95.8466 209.085 95.8466C208.693 95.8466 208.385 96.0398 208.162 96.4261C207.938 96.8125 207.826 97.3684 207.824 98.0938C207.824 98.5786 207.874 98.9886 207.974 99.3239C208.077 99.6572 208.222 99.91 208.409 100.082C208.597 100.253 208.822 100.338 209.085 100.338ZM214.249 101.097C213.8 101.095 213.417 100.976 213.099 100.741C212.781 100.507 212.537 100.165 212.369 99.7159C212.2 99.267 212.116 98.7263 212.116 98.0938C212.116 97.4631 212.2 96.9242 212.369 96.4773C212.539 96.0303 212.783 95.6894 213.102 95.4545C213.422 95.2197 213.804 95.1023 214.249 95.1023C214.694 95.1023 215.076 95.2206 215.394 95.4574C215.712 95.6922 215.956 96.0331 216.124 96.4801C216.295 96.9252 216.38 97.4631 216.38 98.0938C216.38 98.7282 216.296 99.2699 216.127 99.7188C215.959 100.166 215.715 100.508 215.397 100.744C215.079 100.979 214.696 101.097 214.249 101.097ZM214.249 100.338C214.643 100.338 214.951 100.146 215.173 99.7614C215.396 99.3769 215.508 98.821 215.508 98.0938C215.508 97.6108 215.457 97.2027 215.354 96.8693C215.254 96.5341 215.109 96.2803 214.92 96.108C214.732 95.9337 214.509 95.8466 214.249 95.8466C213.857 95.8466 213.549 96.0398 213.326 96.4261C213.103 96.8125 212.99 97.3684 212.988 98.0938C212.988 98.5786 213.038 98.9886 213.138 99.3239C213.241 99.6572 213.386 99.91 213.573 100.082C213.761 100.253 213.986 100.338 214.249 100.338ZM219.196 98.064H220.028V99.672H219.196V98.064ZM222.412 94.352H223.252V99.896H222.412V94.352ZM218.14 100.832H223.428V101.512H218.14V100.832ZM218.14 99.36H218.98V101.016H218.14V99.36ZM217.268 98.344L217.164 97.664C217.612 97.6587 218.1 97.6533 218.628 97.648C219.156 97.6373 219.695 97.6187 220.244 97.592C220.799 97.56 221.332 97.512 221.844 97.448L221.908 98.048C221.385 98.1333 220.849 98.1973 220.3 98.24C219.756 98.2827 219.225 98.3093 218.708 98.32C218.191 98.3307 217.711 98.3387 217.268 98.344ZM220.98 98.632H222.62V99.224H220.98V98.632ZM219.524 94.624C219.887 94.624 220.201 94.6773 220.468 94.784C220.74 94.8907 220.951 95.0427 221.1 95.24C221.255 95.432 221.332 95.656 221.332 95.912C221.332 96.168 221.255 96.3947 221.1 96.592C220.951 96.7893 220.74 96.9413 220.468 97.048C220.201 97.1493 219.887 97.2 219.524 97.2C219.172 97.2 218.857 97.1493 218.58 97.048C218.308 96.9413 218.095 96.7893 217.94 96.592C217.791 96.3947 217.716 96.168 217.716 95.912C217.716 95.656 217.791 95.432 217.94 95.24C218.095 95.0427 218.308 94.8907 218.58 94.784C218.857 94.6773 219.172 94.624 219.524 94.624ZM219.524 95.24C219.225 95.24 218.98 95.3013 218.788 95.424C218.601 95.5413 218.508 95.704 218.508 95.912C218.508 96.12 218.601 96.2853 218.788 96.408C218.98 96.5253 219.225 96.584 219.524 96.584C219.823 96.584 220.065 96.5253 220.252 96.408C220.439 96.2853 220.532 96.12 220.532 95.912C220.532 95.7733 220.489 95.656 220.404 95.56C220.319 95.4587 220.201 95.3813 220.052 95.328C219.903 95.2693 219.727 95.24 219.524 95.24ZM226.392 98.5852C226.392 99.2992 226.298 99.9555 226.111 100.554C225.923 101.152 225.65 101.705 225.29 102.21H224.511C224.652 102.023 224.782 101.793 224.903 101.52C225.025 101.247 225.131 100.949 225.222 100.625C225.313 100.299 225.384 99.9621 225.435 99.6136C225.486 99.2652 225.511 98.9223 225.511 98.5852C225.511 98.1364 225.467 97.6809 225.378 97.2188C225.289 96.7566 225.169 96.3277 225.017 95.9318C224.866 95.536 224.697 95.2131 224.511 94.9631H225.29C225.65 95.4687 225.923 96.0208 226.111 96.6193C226.298 97.2178 226.392 97.8731 226.392 98.5852Z" fill="white"/>
<rect x="246.633" y="113" width="16" height="16" rx="8" fill="#048CFC"/>
<path d="M254.133 124.5C254.133 124.776 254.357 125 254.633 125C254.909 125 255.133 124.776 255.133 124.5L254.633 124.5L254.133 124.5ZM254.986 117.146C254.791 116.951 254.475 116.951 254.279 117.146L251.097 120.328C250.902 120.524 250.902 120.84 251.097 121.036C251.293 121.231 251.609 121.231 251.804 121.036L254.633 118.207L257.461 121.036C257.657 121.231 257.973 121.231 258.168 121.036C258.364 120.84 258.364 120.524 258.168 120.328L254.986 117.146ZM254.633 124.5L255.133 124.5L255.133 117.5L254.633 117.5L254.133 117.5L254.133 124.5L254.633 124.5Z" fill="white"/>
<path d="M119.74 47.352H120.572V51.608H119.74V47.352ZM120.228 49.168H121.604V49.864H120.228V49.168ZM115.908 51.92H116.74V52.592H119.748V51.92H120.572V54.568H115.908V51.92ZM116.74 53.232V53.904H119.748V53.232H116.74ZM114.876 48.048H119.188V48.72H114.876V48.048ZM117.036 48.992C117.388 48.992 117.695 49.0453 117.956 49.152C118.223 49.2533 118.431 49.4027 118.58 49.6C118.729 49.792 118.804 50.016 118.804 50.272C118.804 50.5333 118.729 50.7627 118.58 50.96C118.431 51.152 118.223 51.3013 117.956 51.408C117.695 51.5147 117.388 51.568 117.036 51.568C116.684 51.568 116.375 51.5147 116.108 51.408C115.841 51.3013 115.633 51.152 115.484 50.96C115.335 50.7627 115.26 50.5333 115.26 50.272C115.26 50.016 115.335 49.792 115.484 49.6C115.633 49.4027 115.841 49.2533 116.108 49.152C116.375 49.0453 116.684 48.992 117.036 48.992ZM117.036 49.608C116.743 49.608 116.505 49.6693 116.324 49.792C116.148 49.9093 116.06 50.072 116.06 50.28C116.06 50.488 116.148 50.6507 116.324 50.768C116.505 50.8853 116.743 50.944 117.036 50.944C117.324 50.944 117.556 50.8853 117.732 50.768C117.908 50.6507 117.996 50.488 117.996 50.28C117.996 50.072 117.908 49.9093 117.732 49.792C117.556 49.6693 117.324 49.608 117.036 49.608ZM116.612 47.288H117.452V48.416H116.612V47.288ZM125.059 48.112H125.787V48.376C125.787 48.6373 125.739 48.8853 125.643 49.12C125.553 49.3493 125.419 49.5653 125.243 49.768C125.067 49.9653 124.859 50.1413 124.619 50.296C124.385 50.4507 124.121 50.5813 123.827 50.688C123.539 50.7947 123.23 50.8747 122.899 50.928L122.587 50.264C122.875 50.2267 123.142 50.1653 123.387 50.08C123.638 49.9947 123.865 49.8907 124.067 49.768C124.275 49.6453 124.451 49.5093 124.595 49.36C124.745 49.2107 124.859 49.0533 124.939 48.888C125.019 48.7227 125.059 48.552 125.059 48.376V48.112ZM125.283 48.112H126.011V48.376C126.011 48.552 126.049 48.7227 126.123 48.888C126.203 49.0533 126.318 49.2107 126.467 49.36C126.617 49.5093 126.793 49.6453 126.995 49.768C127.198 49.8907 127.425 49.9947 127.675 50.08C127.926 50.1653 128.195 50.2267 128.483 50.264L128.171 50.928C127.841 50.8747 127.529 50.7947 127.235 50.688C126.947 50.5813 126.683 50.4507 126.443 50.296C126.203 50.1413 125.995 49.9653 125.819 49.768C125.649 49.5653 125.515 49.3493 125.419 49.12C125.329 48.8853 125.283 48.6373 125.283 48.376V48.112ZM125.099 51.92H125.931V54.656H125.099V51.92ZM122.227 51.456H128.835V52.136H122.227V51.456ZM122.835 47.768H128.219V48.432H122.835V47.768ZM134.771 47.352H135.611V51.088H134.771V47.352ZM130.819 51.44H135.611V53.296H131.659V54.184H130.835V52.688H134.787V52.096H130.819V51.44ZM130.835 53.936H135.835V54.592H130.835V53.936ZM131.403 47.544H132.099V48.096C132.099 48.544 132.016 48.968 131.851 49.368C131.691 49.7627 131.453 50.1093 131.139 50.408C130.829 50.7013 130.453 50.9227 130.011 51.072L129.595 50.408C129.888 50.312 130.147 50.184 130.371 50.024C130.595 49.864 130.781 49.6827 130.931 49.48C131.085 49.272 131.203 49.0507 131.283 48.816C131.363 48.5813 131.403 48.3413 131.403 48.096V47.544ZM131.571 47.544H132.251V48.096C132.251 48.3307 132.291 48.56 132.371 48.784C132.456 49.008 132.573 49.2187 132.723 49.416C132.877 49.608 133.064 49.7787 133.283 49.928C133.501 50.072 133.752 50.1893 134.035 50.28L133.627 50.936C133.301 50.8293 133.011 50.6853 132.755 50.504C132.504 50.3173 132.288 50.0987 132.107 49.848C131.931 49.5973 131.797 49.3253 131.707 49.032C131.616 48.7387 131.571 48.4267 131.571 48.096V47.544ZM141.967 49.048H143.303V49.728H141.967V49.048ZM141.967 51.288H143.303V51.968H141.967V51.288ZM144.503 47.344H145.303V54.656H144.503V47.344ZM143.055 47.488H143.847V54.312H143.055V47.488ZM140.703 47.912C141.023 47.912 141.301 48.0187 141.535 48.232C141.775 48.44 141.959 48.7387 142.087 49.128C142.215 49.512 142.279 49.9733 142.279 50.512C142.279 51.0453 142.215 51.5067 142.087 51.896C141.959 52.2853 141.775 52.584 141.535 52.792C141.301 53 141.023 53.104 140.703 53.104C140.389 53.104 140.114 53 139.879 52.792C139.645 52.584 139.463 52.2853 139.335 51.896C139.207 51.5067 139.143 51.0453 139.143 50.512C139.143 49.9733 139.207 49.512 139.335 49.128C139.463 48.7387 139.645 48.44 139.879 48.232C140.119 48.0187 140.394 47.912 140.703 47.912ZM140.703 48.704C140.538 48.704 140.394 48.7733 140.271 48.912C140.154 49.0507 140.061 49.256 139.991 49.528C139.927 49.7947 139.895 50.1227 139.895 50.512C139.895 50.8907 139.927 51.216 139.991 51.488C140.061 51.76 140.154 51.968 140.271 52.112C140.394 52.2507 140.538 52.32 140.703 52.32C140.874 52.32 141.021 52.2507 141.143 52.112C141.266 51.968 141.359 51.76 141.423 51.488C141.487 51.216 141.519 50.8907 141.519 50.512C141.519 50.1227 141.487 49.7947 141.423 49.528C141.359 49.256 141.266 49.0507 141.143 48.912C141.021 48.7733 140.874 48.704 140.703 48.704ZM151.879 48.392H153.135V49.08H151.879V48.392ZM151.879 49.96H153.135V50.656H151.879V49.96ZM151.295 47.352H152.127V51.68H151.295V47.352ZM147.327 52H152.127V54.664H151.295V52.672H147.327V52ZM148.455 47.768C148.828 47.768 149.161 47.8427 149.455 47.992C149.748 48.1413 149.977 48.3493 150.143 48.616C150.313 48.8773 150.399 49.1787 150.399 49.52C150.399 49.8667 150.313 50.1733 150.143 50.44C149.977 50.7013 149.748 50.9067 149.455 51.056C149.161 51.2053 148.828 51.28 148.455 51.28C148.087 51.28 147.756 51.2053 147.463 51.056C147.169 50.9067 146.937 50.7013 146.767 50.44C146.601 50.1733 146.519 49.8667 146.519 49.52C146.519 49.1787 146.601 48.8773 146.767 48.616C146.937 48.3493 147.169 48.1413 147.463 47.992C147.756 47.8427 148.087 47.768 148.455 47.768ZM148.463 48.48C148.244 48.48 148.049 48.5227 147.879 48.608C147.713 48.6933 147.58 48.816 147.479 48.976C147.383 49.1307 147.335 49.312 147.335 49.52C147.335 49.7333 147.383 49.92 147.479 50.08C147.58 50.2347 147.713 50.3573 147.879 50.448C148.049 50.5333 148.244 50.576 148.463 50.576C148.676 50.576 148.868 50.5333 149.039 50.448C149.209 50.3573 149.343 50.2347 149.439 50.08C149.535 49.92 149.583 49.7333 149.583 49.52C149.583 49.312 149.535 49.1307 149.439 48.976C149.343 48.816 149.209 48.6933 149.039 48.608C148.868 48.5227 148.676 48.48 148.463 48.48ZM157.955 47.592C158.323 47.592 158.651 47.6613 158.939 47.8C159.227 47.9387 159.454 48.1333 159.619 48.384C159.785 48.6293 159.867 48.9147 159.867 49.24C159.867 49.56 159.785 49.8427 159.619 50.088C159.454 50.3333 159.227 50.5253 158.939 50.664C158.651 50.8027 158.323 50.872 157.955 50.872C157.587 50.872 157.259 50.8027 156.971 50.664C156.683 50.5253 156.454 50.3333 156.283 50.088C156.118 49.8427 156.035 49.56 156.035 49.24C156.035 48.9147 156.118 48.6293 156.283 48.384C156.454 48.1333 156.683 47.9387 156.971 47.8C157.259 47.6613 157.587 47.592 157.955 47.592ZM157.955 48.272C157.742 48.272 157.553 48.312 157.387 48.392C157.222 48.472 157.091 48.584 156.995 48.728C156.899 48.872 156.851 49.04 156.851 49.232C156.851 49.4293 156.899 49.6 156.995 49.744C157.091 49.888 157.222 50 157.387 50.08C157.553 50.1547 157.742 50.192 157.955 50.192C158.169 50.192 158.358 50.1547 158.523 50.08C158.689 50 158.819 49.888 158.915 49.744C159.011 49.6 159.059 49.4293 159.059 49.232C159.059 49.04 159.011 48.872 158.915 48.728C158.819 48.584 158.686 48.472 158.515 48.392C158.35 48.312 158.163 48.272 157.955 48.272ZM161.083 47.352H161.923V51.056H161.083V47.352ZM157.131 51.384H161.923V53.264H157.971V54.264H157.147V52.648H161.099V52.04H157.131V51.384ZM157.147 53.912H162.147V54.568H157.147V53.912ZM167.187 49.184H168.723V49.872H167.187V49.184ZM168.475 47.352H169.315V51.704H168.475V47.352ZM166.883 51.896C167.395 51.896 167.832 51.952 168.195 52.064C168.563 52.1707 168.845 52.328 169.043 52.536C169.245 52.7387 169.347 52.9867 169.347 53.28C169.347 53.7173 169.125 54.056 168.683 54.296C168.245 54.536 167.645 54.656 166.883 54.656C166.12 54.656 165.517 54.536 165.075 54.296C164.632 54.056 164.411 53.7173 164.411 53.28C164.411 52.9867 164.509 52.7387 164.707 52.536C164.909 52.328 165.195 52.1707 165.563 52.064C165.936 51.952 166.376 51.896 166.883 51.896ZM166.883 52.536C166.536 52.536 166.24 52.5653 165.995 52.624C165.755 52.6827 165.571 52.7653 165.443 52.872C165.315 52.9787 165.251 53.1147 165.251 53.28C165.251 53.4347 165.315 53.568 165.443 53.68C165.571 53.792 165.755 53.8773 165.995 53.936C166.24 53.9893 166.536 54.016 166.883 54.016C167.229 54.016 167.523 53.9893 167.763 53.936C168.003 53.8773 168.187 53.792 168.315 53.68C168.448 53.568 168.515 53.4347 168.515 53.28C168.515 53.1147 168.448 52.9787 168.315 52.872C168.187 52.7653 168.003 52.6827 167.763 52.624C167.523 52.5653 167.229 52.536 166.883 52.536ZM165.043 48.088H165.731V48.616C165.731 49.0747 165.648 49.5067 165.483 49.912C165.323 50.312 165.091 50.6667 164.787 50.976C164.483 51.28 164.115 51.5093 163.683 51.664L163.259 51C163.541 50.8987 163.792 50.7653 164.011 50.6C164.235 50.4347 164.424 50.2453 164.579 50.032C164.733 49.8187 164.848 49.592 164.923 49.352C165.003 49.112 165.043 48.8667 165.043 48.616V48.088ZM165.211 48.088H165.891V48.616C165.891 48.9147 165.957 49.208 166.091 49.496C166.224 49.784 166.419 50.0427 166.675 50.272C166.931 50.496 167.243 50.6747 167.611 50.808L167.195 51.464C166.773 51.3147 166.413 51.0987 166.115 50.816C165.821 50.528 165.597 50.1947 165.443 49.816C165.288 49.432 165.211 49.032 165.211 48.616V48.088ZM163.499 47.84H167.411V48.52H163.499V47.84Z" fill="white"/>
</svg>
