<svg width="20" height="20" viewBox="0 0 20 20" fill="none" xmlns="http://www.w3.org/2000/svg">
<path d="M3.62109 2.63477C5.23695 1.90545 7.40579 2.1011 9.46289 4.21191L10 4.7627L10.5371 4.21191C12.5942 2.10114 14.763 1.90604 16.3789 2.63574C18.0397 3.38573 19.25 5.16555 19.25 7.28027C19.2499 9.44358 18.354 11.1132 17.0654 12.5459C15.7511 14.0072 14.0932 15.1588 12.5771 16.3379V16.3389C12.0516 16.7488 11.582 17.1082 11.1299 17.3691C10.6777 17.6301 10.3121 17.75 10 17.75C9.68813 17.75 9.32248 17.6302 8.87012 17.3691C8.41774 17.1081 7.94875 16.7481 7.42285 16.3389C5.90704 15.1585 4.25009 14.0065 2.93555 12.5449C1.64683 11.112 0.750065 9.44304 0.75 7.2793C0.75 5.16403 1.9604 3.38437 3.62109 2.63477Z" stroke="white" stroke-width="1.5"/>
</svg>
