<svg width="20" height="20" viewBox="0 0 20 20" fill="none" xmlns="http://www.w3.org/2000/svg">
<path d="M18 18.0016V18.5H18.5V18.0016H18ZM13.354 12.6644C13.2601 12.5708 13.1328 12.5182 13 12.5182C12.8672 12.5182 12.7399 12.5708 12.646 12.6644C12.5521 12.758 12.4994 12.8849 12.4994 13.0173C12.4994 13.1497 12.5521 13.2766 12.646 13.3702L13.354 12.6644ZM17.5 12.0204V18.0016L18 18.2714L18.5 18.0016V12.0204H17.5ZM18 17.5031H12V18.5H18V18.0016V17.5031ZM18.354 17.6487L13.354 12.6644L12.646 13.3702L17.646 18.3545L18.354 17.6487ZM7.354 13.3702C7.44789 13.2766 7.50063 13.1497 7.50063 13.0173C7.50063 12.8849 7.44789 12.758 7.354 12.6644C7.26011 12.5708 7.13278 12.5182 7 12.5182C6.86722 12.5182 6.73989 12.5708 6.646 12.6644L7.354 13.3702ZM1.5 12.0204V18.5L2.5 18.0016V12.0204H1.5ZM1.5 18.5H8V17.5031H2L1.5 18.5ZM2.354 18.3545L7.354 13.3702L6.646 12.6644L1.646 17.6487L2.354 18.3545ZM18 2.05189H18.5V1.55346L18 2.05189ZM12.646 6.68328C12.5995 6.72962 12.5626 6.78463 12.5375 6.84518C12.5123 6.90573 12.4994 6.97062 12.4994 7.03616C12.4994 7.1017 12.5123 7.16659 12.5375 7.22714C12.5626 7.28769 12.5995 7.34271 12.646 7.38905C12.6925 7.43539 12.7477 7.47215 12.8084 7.49723C12.8692 7.52231 12.9343 7.53522 13 7.53522C13.0657 7.53522 13.1308 7.52231 13.1916 7.49723C13.2523 7.47215 13.3075 7.43539 13.354 7.38905L12.646 6.68328ZM18.5 8.03302V2.05189L17.646 1.5L17.5 8.03302H18.5ZM18.5 1.55346H12V2.55031H18.5V1.55346ZM17.646 1.699L12.646 6.68328L13.354 7.38905L18.354 2.40477L17.8462 2.20525L17.646 1.699ZM6.646 7.38905C6.73989 7.48264 6.86722 7.53522 7 7.53522C7.13278 7.53522 7.26011 7.48264 7.354 7.38905C7.44789 7.29546 7.50063 7.16852 7.50063 7.03616C7.50063 6.9038 7.44789 6.77687 7.354 6.68328L6.646 7.38905ZM2.5 8.03302V2.05189L1.5 1.55346L1.5 8.03302H2.5ZM2 2.55031H8V1.55346L1.5 1.55346L2 2.55031ZM1.646 2.40477L6.646 7.38905L7.354 6.68328L2.354 1.699L1.646 2.40477Z" fill="#444444"/>
<path d="M18 18.0016V18.5M18 18.0016H18.5M18 18.0016V17.5031H12V18.5H18M18 18.5H18.5V18.0016M18.5 18.0016V12.0204H17.5V18.0016L18 18.2714L18.5 18.0016ZM13.354 12.6644C13.2601 12.5708 13.1328 12.5182 13 12.5182C12.8672 12.5182 12.7399 12.5708 12.646 12.6644C12.5521 12.758 12.4994 12.8849 12.4994 13.0173C12.4994 13.1497 12.5521 13.2766 12.646 13.3702M13.354 12.6644L12.646 13.3702M13.354 12.6644L18.354 17.6487L17.646 18.3545L12.646 13.3702M2 18.0016L1.5 18.5M1.5 18.5V12.0204H2.5V18.0016L1.5 18.5ZM1.5 18.5H8V17.5031H2L1.5 18.5ZM7.354 13.3702C7.44789 13.2766 7.50063 13.1497 7.50063 13.0173C7.50063 12.8849 7.44789 12.758 7.354 12.6644C7.26011 12.5708 7.13278 12.5182 7 12.5182C6.86722 12.5182 6.73989 12.5708 6.646 12.6644M7.354 13.3702L6.646 12.6644M7.354 13.3702L2.354 18.3545L1.646 17.6487L6.646 12.6644M18.5 2.05189H18L18.5 1.55346M18.5 2.05189V1.55346M18.5 2.05189V8.03302H17.5L17.646 1.5L18.5 2.05189ZM18.5 1.55346H12V2.55031H18.5V1.55346ZM12.646 6.68328C12.5995 6.72962 12.5626 6.78463 12.5375 6.84518C12.5123 6.90573 12.4994 6.97063 12.4994 7.03616C12.4994 7.1017 12.5123 7.16659 12.5375 7.22714C12.5626 7.28769 12.5995 7.34271 12.646 7.38905C12.6925 7.43539 12.7477 7.47215 12.8084 7.49723C12.8692 7.52231 12.9343 7.53522 13 7.53522C13.0657 7.53522 13.1308 7.52231 13.1916 7.49723C13.2523 7.47215 13.3075 7.43539 13.354 7.38905M12.646 6.68328L13.354 7.38905M12.646 6.68328L17.646 1.699L17.8462 2.20525L18.354 2.40477L13.354 7.38905M2 2.05189L1.5 1.55346M1.5 1.55346L2.5 2.05189V8.03302H1.5L1.5 1.55346ZM1.5 1.55346L8 1.55346V2.55031H2L1.5 1.55346ZM6.646 7.38905C6.73989 7.48264 6.86722 7.53522 7 7.53522C7.13278 7.53522 7.26011 7.48264 7.354 7.38905C7.44789 7.29546 7.50063 7.16852 7.50063 7.03616C7.50063 6.9038 7.44789 6.77687 7.354 6.68328M6.646 7.38905L7.354 6.68328M6.646 7.38905L1.646 2.40477L2.354 1.699L7.354 6.68328" stroke="#444444" stroke-width="0.3" stroke-linejoin="round"/>
</svg>
