<svg width="20" height="20" viewBox="0 0 20 20" fill="none" xmlns="http://www.w3.org/2000/svg">
<path d="M13.3545 16.9999L13.3548 14.3751C13.3549 12.9253 12.1557 11.7499 10.6764 11.7499H4.67868C3.19957 11.7499 2.00047 12.925 2.0003 14.3746L2 16.9999M17.9998 17L18 14.3753C18.0001 12.9254 16.8009 11.7501 15.3216 11.7501M12.8386 3.51568C13.4964 3.99398 13.9226 4.76076 13.9226 5.62512C13.9226 6.48947 13.4964 7.25625 12.8386 7.73455M10.4115 5.62497C10.4115 7.07471 9.21235 8.24995 7.73312 8.24995C6.25389 8.24995 5.05474 7.07471 5.05474 5.62497C5.05474 4.17524 6.25389 3 7.73312 3C9.21235 3 10.4115 4.17524 10.4115 5.62497Z" stroke="#4B5563" stroke-width="1.82997" stroke-linecap="round" stroke-linejoin="round"/>
</svg>
