<svg width="68" height="69" viewBox="0 0 68 69" fill="none" xmlns="http://www.w3.org/2000/svg">
<path fill-rule="evenodd" clip-rule="evenodd" d="M64.6359 38.7441C66.4268 39.3088 67.4208 41.2183 66.8562 43.0092L66.0088 45.6967L64.8736 48.4373L63.5039 51.0685L61.91 53.5704L60.1042 55.9238L58.1001 58.1108L55.9131 60.1149L53.5597 61.9207L51.0578 63.5146L48.5583 64.8158C46.8927 65.6828 44.8395 65.0355 43.9725 63.3699C43.1054 61.7043 43.7528 59.6511 45.4184 58.7841L47.6546 57.62L49.6556 56.3452L51.538 54.9008L53.2872 53.2979L54.8901 51.5486L56.3345 49.6663L57.6093 47.6653L58.7048 45.5608L59.6128 43.3687L60.3709 40.9644C60.9356 39.1735 62.8451 38.1795 64.6359 38.7441Z" fill="#F1F1F1"/>
<path fill-rule="evenodd" clip-rule="evenodd" d="M64.9283 32.0747C63.0951 32.4811 61.2795 31.3244 60.873 29.4912L60.3274 27.0299L59.6139 24.7671L58.706 22.5751L57.6104 20.4705L56.3356 18.4695L54.8913 16.5872L53.2884 14.8379L51.5391 13.235L49.6568 11.7906L47.6557 10.5158L45.5512 9.42029L43.3592 8.51233L41.0964 7.79887L38.78 7.28535L36.4277 6.97566L34.0573 6.87217L31.687 6.97566L29.3347 7.28535L27.0183 7.79888L24.7555 8.51233L22.5635 9.4203L20.459 10.5158L18.4579 11.7906L16.5756 13.235L14.8263 14.8379L13.2234 16.5872L11.7791 18.4695L10.5043 20.4705L9.4087 22.5751L8.50076 24.767L7.78728 27.0299L7.27376 29.3463L6.96408 31.6986L6.86058 34.069L6.96407 36.4393L7.27377 38.7916L7.78729 41.108L8.50074 43.3708L9.4087 45.5628L10.5043 47.6673L11.7791 49.6683L13.2234 51.5507L14.8263 53.2999L16.5756 54.9029L18.4579 56.3472L20.459 57.622L22.5635 58.7176L24.7555 59.6255L27.0183 60.339L29.3347 60.8525L31.687 61.1622L34.2056 61.2722C36.0816 61.3541 37.536 62.9412 37.4541 64.8172C37.3722 66.6932 35.785 68.1476 33.909 68.0657L31.0938 67.9428L28.1527 67.5556L25.2567 66.9135L22.4276 66.0215L19.687 64.8863L17.0557 63.5166L14.5539 61.9227L12.2005 60.1169L10.0134 58.1128L8.00935 55.9258L6.20351 53.5724L4.60967 51.0705L3.23994 48.4393L2.10476 45.6987L1.21274 42.8696L0.57069 39.9735L0.18349 37.0325L0.0541005 34.0689L0.183502 31.1054L0.570693 28.1643L1.21274 25.2682L2.10475 22.4391L3.23994 19.6985L4.60968 17.0673L6.20352 14.5655L8.00936 12.2121L10.0134 10.025L12.2005 8.02094L14.5539 6.2151L17.0557 4.62126L19.687 3.25153L22.4276 2.11634L25.2567 1.22432L28.1527 0.582276L31.0938 0.195081L34.0573 0.0656893L37.0209 0.195081L39.9619 0.582275L42.858 1.22432L45.6871 2.11634L48.4277 3.25153L51.059 4.62126L53.5608 6.21511L55.9142 8.02093L58.1013 10.025L60.1053 12.2121L61.9112 14.5655L63.505 17.0673L64.8747 19.6985L66.0099 22.4391L66.9019 25.2682L67.5119 28.0194C67.9183 29.8527 66.7616 31.6683 64.9283 32.0747Z" fill="#E6E6E6"/>
</svg>
