<svg width="74" height="82" viewBox="0 0 74 82" fill="none" xmlns="http://www.w3.org/2000/svg">
<path d="M22.6444 58.9199C16.0963 60.4736 3 64.0987 3 68.7597C3 74.4563 19.6222 79.6352 36.7481 79.6352C53.8741 79.6352 71 74.4563 71 68.7597C71 64.0987 57.9037 60.8188 51.3556 58.9199" stroke="#AFAFAF" stroke-width="4.50331" stroke-linecap="round"/>
<path d="M16.1016 24.3796C16.1016 34.1043 30.0334 55.4849 36.9994 64.7268C43.9653 55.209 57.8972 34.1043 57.8972 24.3796C57.8972 12.5858 47.5517 2.44727 36.9994 2.44727C26.447 2.44727 16.1016 12.5858 16.1016 24.3796Z" stroke="#AFAFAF" stroke-width="4.552" stroke-linecap="round" stroke-linejoin="round"/>
<path d="M28.5176 18.1719L45.2772 34.9315M45.2772 18.1719L28.5176 34.9315" stroke="#AFAFAF" stroke-width="4.96581" stroke-linejoin="round"/>
</svg>
