<svg width="73" height="82" viewBox="0 0 73 82" fill="none" xmlns="http://www.w3.org/2000/svg">
<path d="M21.8964 58.75C15.3482 60.3036 2.25195 63.9288 2.25195 68.5897C2.25195 74.2864 18.8742 79.4652 36.0001 79.4652C53.126 79.4652 70.252 74.2864 70.252 68.5897C70.252 63.9288 57.1557 60.6489 50.6075 58.75" stroke="#E6E6E6" stroke-width="4.50331" stroke-linecap="round"/>
<path d="M15.3535 24.2077C15.3535 33.9324 29.2854 55.313 36.2513 64.555C43.2172 55.0372 57.1491 33.9324 57.1491 24.2077C57.1491 12.4139 46.8037 2.27539 36.2513 2.27539C25.699 2.27539 15.3535 12.4139 15.3535 24.2077Z" stroke="#E6E6E6" stroke-width="4.552" stroke-linecap="round" stroke-linejoin="round"/>
<path d="M27.7695 18.002L44.5292 34.7616M44.5292 18.002L27.7695 34.7616" stroke="#E6E6E6" stroke-width="4.96581" stroke-linejoin="round"/>
</svg>
