<svg width="208" height="135" viewBox="0 0 208 135" fill="none" xmlns="http://www.w3.org/2000/svg">
<path d="M118.1 0L138.041 19.9412V48.1421L118.1 68.0833H89.8993L69.958 48.1421V19.9412L89.8993 0H118.1ZM115.133 7.16667H92.8663L77.1247 22.9082V45.1751L92.8663 60.9131H115.133L130.875 45.1715V22.9082L115.133 7.16667ZM100.413 44.7917H107.579V51.9583H100.413V44.7917ZM100.413 16.125H107.579V37.625H100.413V16.125Z" fill="#AFAFAF"/>
<path d="M8.07006 101.067H21.4941V102.795H8.07006V101.067ZM13.7181 97.787H15.8301V101.547H13.7181V97.787ZM13.6381 91.611H15.4461V92.155C15.4461 92.7737 15.3554 93.3657 15.1741 93.931C15.0034 94.4963 14.7474 95.0243 14.4061 95.515C14.0754 96.0057 13.6647 96.443 13.1741 96.827C12.6834 97.211 12.1234 97.5417 11.4941 97.819C10.8647 98.0963 10.1767 98.3043 9.43006 98.443L8.58206 96.747C9.2434 96.6403 9.84073 96.4803 10.3741 96.267C10.9181 96.0537 11.3927 95.7977 11.7981 95.499C12.2034 95.2003 12.5394 94.8697 12.8061 94.507C13.0834 94.1443 13.2914 93.7657 13.4301 93.371C13.5687 92.9763 13.6381 92.571 13.6381 92.155V91.611ZM14.0861 91.611H15.8781V92.155C15.8781 92.571 15.9474 92.9763 16.0861 93.371C16.2247 93.755 16.4327 94.1283 16.7101 94.491C16.9874 94.843 17.3287 95.1683 17.7341 95.467C18.1501 95.755 18.6301 96.0057 19.1741 96.219C19.7287 96.4323 20.3421 96.587 21.0141 96.683L20.1821 98.363C19.4141 98.2243 18.7101 98.0217 18.0701 97.755C17.4407 97.4883 16.8754 97.163 16.3741 96.779C15.8834 96.395 15.4674 95.9683 15.1261 95.499C14.7847 95.019 14.5234 94.4963 14.3421 93.931C14.1714 93.3657 14.0861 92.7737 14.0861 92.155V91.611ZM9.17406 90.811H20.3421V92.507H9.17406V90.811ZM33.0448 89.675H35.1888V100.507H33.0448V89.675ZM30.5008 93.995H33.3488V95.723H30.5008V93.995ZM28.3888 90.795H30.6128C30.6128 92.1283 30.3461 93.3337 29.8128 94.411C29.2795 95.4883 28.5061 96.4217 27.4928 97.211C26.4901 98.0003 25.2688 98.6243 23.8288 99.083L22.9488 97.387C24.0901 97.0243 25.0661 96.5657 25.8768 96.011C26.6875 95.4457 27.3061 94.8057 27.7328 94.091C28.1701 93.3657 28.3888 92.587 28.3888 91.755V90.795ZM23.7168 90.795H29.7328V92.491H23.7168V90.795ZM25.4768 102.539H35.5568V104.251H25.4768V102.539ZM25.4768 99.435H27.6048V103.531H25.4768V99.435ZM43.4276 95.131H45.8596V96.843H43.4276V95.131ZM48.1956 89.675H50.2276V104.491H48.1956V89.675ZM45.1876 89.915H47.1716V103.835H45.1876V89.915ZM40.8356 90.715C41.4862 90.715 42.0516 90.9337 42.5316 91.371C43.0222 91.7977 43.3956 92.4163 43.6516 93.227C43.9182 94.027 44.0516 94.987 44.0516 96.107C44.0516 97.2163 43.9182 98.1763 43.6516 98.987C43.3956 99.7977 43.0222 100.422 42.5316 100.859C42.0516 101.286 41.4809 101.499 40.8196 101.499C40.1796 101.499 39.6142 101.286 39.1236 100.859C38.6436 100.422 38.2702 99.7977 38.0036 98.987C37.7476 98.1763 37.6196 97.2163 37.6196 96.107C37.6196 94.987 37.7476 94.027 38.0036 93.227C38.2702 92.4163 38.6436 91.7977 39.1236 91.371C39.6142 90.9337 40.1849 90.715 40.8356 90.715ZM40.8356 92.731C40.5689 92.731 40.3396 92.8537 40.1476 93.099C39.9556 93.3443 39.8062 93.7177 39.6996 94.219C39.6036 94.7097 39.5556 95.339 39.5556 96.107C39.5556 96.8537 39.6036 97.4777 39.6996 97.979C39.8062 98.4803 39.9556 98.859 40.1476 99.115C40.3396 99.3603 40.5689 99.483 40.8356 99.483C41.1022 99.483 41.3316 99.3603 41.5236 99.115C41.7262 98.859 41.8756 98.4803 41.9716 97.979C42.0676 97.4777 42.1156 96.8537 42.1156 96.107C42.1156 95.339 42.0676 94.7097 41.9716 94.219C41.8756 93.7177 41.7262 93.3443 41.5236 93.099C41.3316 92.8537 41.1022 92.731 40.8356 92.731ZM56.6111 90.619H63.6831V97.163H56.6111V90.619ZM61.5871 92.315H58.7071V95.467H61.5871V92.315ZM65.7151 89.691H67.8431V97.979H65.7151V89.691ZM67.2671 92.891H69.8111V94.635H67.2671V92.891ZM61.9391 99.467H63.7471V99.819C63.7471 100.384 63.6297 100.923 63.3951 101.435C63.1604 101.947 62.8084 102.411 62.3391 102.827C61.8804 103.232 61.3044 103.574 60.6111 103.851C59.9284 104.139 59.1391 104.342 58.2431 104.459L57.4751 102.843C58.2537 102.747 58.9204 102.598 59.4751 102.395C60.0404 102.192 60.5044 101.952 60.8671 101.675C61.2297 101.398 61.4964 101.099 61.6671 100.779C61.8484 100.448 61.9391 100.128 61.9391 99.819V99.467ZM62.4191 99.467H64.2111V99.819C64.2111 100.128 64.3017 100.443 64.4831 100.763C64.6644 101.072 64.9364 101.371 65.2991 101.659C65.6724 101.936 66.1364 102.182 66.6911 102.395C67.2457 102.608 67.9017 102.763 68.6591 102.859L67.9071 104.475C67.0111 104.358 66.2217 104.155 65.5391 103.867C64.8564 103.579 64.2804 103.227 63.8111 102.811C63.3524 102.395 63.0057 101.931 62.7711 101.419C62.5364 100.907 62.4191 100.374 62.4191 99.819V99.467ZM58.1151 98.667H68.0351V100.347H58.1151V98.667ZM72.5618 93.675H82.8338V95.371H72.5618V93.675ZM70.9138 96.907H84.3218V98.603H70.9138V96.907ZM72.5618 90.203H74.6898V94.523H72.5618V90.203ZM72.4338 102.475H82.9138V104.187H72.4338V102.475ZM72.4338 99.771H74.5618V102.939H72.4338V99.771ZM99.1213 89.691H101.249V98.363H99.1213V89.691ZM100.417 93.243H103.217V94.987H100.417V93.243ZM91.6173 98.939H93.7293V100.043H99.1533V98.939H101.249V104.347H91.6173V98.939ZM93.7293 101.643V102.683H99.1533V101.643H93.7293ZM89.6013 90.971H98.3053V92.651H89.6013V90.971ZM93.9533 93.035C94.6786 93.035 95.3133 93.147 95.8573 93.371C96.4013 93.5843 96.828 93.8883 97.1373 94.283C97.4466 94.6777 97.6013 95.1363 97.6013 95.659C97.6013 96.1817 97.4466 96.6403 97.1373 97.035C96.828 97.4297 96.4013 97.739 95.8573 97.963C95.3133 98.1763 94.6786 98.283 93.9533 98.283C93.2386 98.283 92.604 98.1763 92.0493 97.963C91.5053 97.739 91.0786 97.4297 90.7693 97.035C90.46 96.6403 90.3053 96.1817 90.3053 95.659C90.3053 95.1363 90.46 94.6777 90.7693 94.283C91.0786 93.8883 91.5053 93.5843 92.0493 93.371C92.604 93.147 93.2386 93.035 93.9533 93.035ZM93.9533 94.587C93.484 94.587 93.1 94.683 92.8013 94.875C92.5026 95.0563 92.3533 95.3177 92.3533 95.659C92.3533 96.011 92.5026 96.283 92.8013 96.475C93.1 96.6563 93.484 96.747 93.9533 96.747C94.4333 96.747 94.8173 96.6563 95.1053 96.475C95.404 96.283 95.5533 96.011 95.5533 95.659C95.5533 95.3177 95.404 95.0563 95.1053 94.875C94.8173 94.683 94.4333 94.587 93.9533 94.587ZM92.8973 89.563H95.0093V91.899H92.8973V89.563ZM109.792 91.323H111.648V91.771C111.648 92.283 111.563 92.779 111.392 93.259C111.232 93.739 110.987 94.187 110.656 94.603C110.325 95.0083 109.92 95.3763 109.44 95.707C108.971 96.027 108.427 96.299 107.808 96.523C107.189 96.747 106.501 96.907 105.744 97.003L104.96 95.355C105.621 95.2697 106.208 95.1417 106.72 94.971C107.243 94.7897 107.696 94.5817 108.08 94.347C108.464 94.1017 108.784 93.8403 109.04 93.563C109.296 93.2857 109.483 92.9923 109.6 92.683C109.728 92.3737 109.792 92.0697 109.792 91.771V91.323ZM110.416 91.323H112.256V91.771C112.256 92.0697 112.315 92.3737 112.432 92.683C112.56 92.9923 112.752 93.2857 113.008 93.563C113.264 93.8403 113.584 94.1017 113.968 94.347C114.363 94.5817 114.816 94.7897 115.328 94.971C115.84 95.1417 116.427 95.2697 117.088 95.355L116.304 97.003C115.547 96.907 114.859 96.747 114.24 96.523C113.621 96.299 113.072 96.027 112.592 95.707C112.123 95.3763 111.723 95.0083 111.392 94.603C111.072 94.187 110.827 93.739 110.656 93.259C110.496 92.779 110.416 92.283 110.416 91.771V91.323ZM109.904 99.083H112.032V104.507H109.904V99.083ZM104.32 97.851H117.728V99.563H104.32V97.851ZM105.504 90.443H116.496V92.123H105.504V90.443ZM129.215 89.691H131.343V97.163H129.215V89.691ZM121.471 97.819H131.343V101.835H123.583V103.323H121.487V100.315H129.231V99.451H121.471V97.819ZM121.487 102.747H131.711V104.411H121.487V102.747ZM122.511 90.027H124.271V91.131C124.271 92.0377 124.116 92.9017 123.807 93.723C123.497 94.5443 123.023 95.259 122.383 95.867C121.753 96.475 120.953 96.9283 119.983 97.227L118.959 95.547C119.577 95.355 120.111 95.1043 120.559 94.795C121.007 94.4857 121.375 94.1337 121.663 93.739C121.951 93.3443 122.164 92.9283 122.303 92.491C122.441 92.043 122.511 91.5897 122.511 91.131V90.027ZM122.943 90.027H124.671V91.131C124.671 91.579 124.74 92.0163 124.879 92.443C125.017 92.859 125.225 93.2537 125.503 93.627C125.78 94.0003 126.137 94.331 126.575 94.619C127.012 94.907 127.529 95.1363 128.127 95.307L127.103 96.971C126.399 96.7577 125.785 96.4643 125.263 96.091C124.74 95.707 124.303 95.259 123.951 94.747C123.609 94.2243 123.353 93.659 123.183 93.051C123.023 92.443 122.943 91.803 122.943 91.131V90.027ZM143.918 89.659H146.046V104.523H143.918V89.659ZM138.062 90.699C138.819 90.699 139.491 90.9177 140.078 91.355C140.664 91.7817 141.123 92.395 141.454 93.195C141.795 93.9843 141.966 94.9177 141.966 95.995C141.966 97.083 141.795 98.027 141.454 98.827C141.123 99.6163 140.664 100.23 140.078 100.667C139.491 101.094 138.819 101.307 138.062 101.307C137.315 101.307 136.648 101.094 136.062 100.667C135.475 100.23 135.011 99.6163 134.67 98.827C134.339 98.027 134.174 97.083 134.174 95.995C134.174 94.9177 134.339 93.9843 134.67 93.195C135.011 92.395 135.475 91.7817 136.062 91.355C136.648 90.9177 137.315 90.699 138.062 90.699ZM138.062 92.635C137.699 92.635 137.379 92.763 137.102 93.019C136.824 93.275 136.606 93.6537 136.446 94.155C136.296 94.6457 136.222 95.259 136.222 95.995C136.222 96.7203 136.296 97.339 136.446 97.851C136.606 98.3523 136.824 98.731 137.102 98.987C137.379 99.243 137.699 99.371 138.062 99.371C138.435 99.371 138.76 99.243 139.038 98.987C139.315 98.731 139.528 98.3523 139.678 97.851C139.838 97.339 139.918 96.7203 139.918 95.995C139.918 95.259 139.838 94.6457 139.678 94.155C139.528 93.6537 139.315 93.275 139.038 93.019C138.76 92.763 138.435 92.635 138.062 92.635ZM154.061 98.363H156.045V99.819H157.517V98.363H159.469V104.347H154.061V98.363ZM156.045 101.355V102.747H157.517V101.355H156.045ZM161.773 98.235H163.373V99.339C163.373 100.064 163.272 100.768 163.069 101.451C162.866 102.123 162.536 102.72 162.077 103.243C161.629 103.776 161.037 104.187 160.301 104.475L159.261 102.891C159.858 102.646 160.338 102.336 160.701 101.963C161.074 101.579 161.346 101.163 161.517 100.715C161.688 100.256 161.773 99.7977 161.773 99.339V98.235ZM162.253 98.235H163.885V99.339C163.885 99.851 163.965 100.342 164.125 100.811C164.296 101.27 164.562 101.68 164.925 102.043C165.298 102.406 165.784 102.688 166.381 102.891L165.325 104.475C164.578 104.208 163.981 103.819 163.533 103.307C163.085 102.795 162.76 102.203 162.557 101.531C162.354 100.848 162.253 100.118 162.253 99.339V98.235ZM159.933 92.859H163.645V94.571H159.933V92.859ZM156.525 90.235C157.272 90.235 157.938 90.3843 158.525 90.683C159.122 90.9817 159.592 91.3923 159.933 91.915C160.274 92.4377 160.445 93.0403 160.445 93.723C160.445 94.4057 160.274 95.0137 159.933 95.547C159.592 96.0697 159.122 96.4803 158.525 96.779C157.938 97.0777 157.272 97.227 156.525 97.227C155.789 97.227 155.122 97.0777 154.525 96.779C153.938 96.4803 153.474 96.0697 153.133 95.547C152.792 95.0137 152.621 94.4057 152.621 93.723C152.621 93.0403 152.792 92.4377 153.133 91.915C153.474 91.3923 153.938 90.9817 154.525 90.683C155.122 90.3843 155.789 90.235 156.525 90.235ZM156.525 91.979C156.162 91.979 155.837 92.0483 155.549 92.187C155.272 92.3257 155.053 92.5283 154.893 92.795C154.733 93.051 154.653 93.3603 154.653 93.723C154.653 94.0857 154.733 94.4003 154.893 94.667C155.053 94.9337 155.272 95.1363 155.549 95.275C155.837 95.4137 156.162 95.483 156.525 95.483C156.888 95.483 157.208 95.4137 157.485 95.275C157.773 95.1363 157.997 94.9337 158.157 94.667C158.317 94.4003 158.397 94.0857 158.397 93.723C158.397 93.3603 158.317 93.051 158.157 92.795C157.997 92.5283 157.773 92.3257 157.485 92.187C157.208 92.0483 156.888 91.979 156.525 91.979ZM162.701 89.691H164.845V97.531H162.701V89.691ZM171.212 90.699C171.948 90.699 172.604 90.9177 173.18 91.355C173.766 91.7817 174.22 92.395 174.54 93.195C174.87 93.9843 175.036 94.9177 175.036 95.995C175.036 97.083 174.87 98.027 174.54 98.827C174.22 99.6163 173.766 100.23 173.18 100.667C172.604 101.094 171.948 101.307 171.212 101.307C170.476 101.307 169.82 101.094 169.244 100.667C168.668 100.23 168.214 99.6163 167.884 98.827C167.553 98.027 167.388 97.083 167.388 95.995C167.388 94.9177 167.553 93.9843 167.884 93.195C168.214 92.395 168.668 91.7817 169.244 91.355C169.82 90.9177 170.476 90.699 171.212 90.699ZM171.212 92.635C170.86 92.635 170.545 92.763 170.268 93.019C170.001 93.275 169.793 93.6537 169.644 94.155C169.494 94.6457 169.42 95.259 169.42 95.995C169.42 96.7203 169.494 97.339 169.644 97.851C169.793 98.3523 170.001 98.731 170.268 98.987C170.545 99.243 170.86 99.371 171.212 99.371C171.585 99.371 171.905 99.243 172.172 98.987C172.438 98.731 172.646 98.3523 172.796 97.851C172.945 97.339 173.02 96.7203 173.02 95.995C173.02 95.259 172.945 94.6457 172.796 94.155C172.646 93.6537 172.438 93.275 172.172 93.019C171.905 92.763 171.585 92.635 171.212 92.635ZM177.468 89.659H179.596V104.523H177.468V89.659ZM174.412 95.019H178.364V96.715H174.412V95.019ZM184.827 97.211H186.955V101.355H184.827V97.211ZM190.203 97.211H192.331V101.355H190.203V97.211ZM181.883 101.051H195.307V102.779H181.883V101.051ZM188.571 90.411C189.637 90.411 190.587 90.5763 191.419 90.907C192.261 91.2377 192.917 91.7017 193.387 92.299C193.867 92.8857 194.107 93.5843 194.107 94.395C194.107 95.195 193.867 95.8937 193.387 96.491C192.917 97.0777 192.261 97.5363 191.419 97.867C190.587 98.1977 189.637 98.363 188.571 98.363C187.515 98.363 186.565 98.1977 185.723 97.867C184.891 97.5363 184.235 97.0777 183.755 96.491C183.275 95.8937 183.035 95.195 183.035 94.395C183.035 93.5843 183.275 92.8857 183.755 92.299C184.235 91.7017 184.891 91.2377 185.723 90.907C186.565 90.5763 187.515 90.411 188.571 90.411ZM188.571 92.059C187.888 92.059 187.285 92.155 186.763 92.347C186.251 92.5283 185.851 92.7897 185.563 93.131C185.275 93.4723 185.131 93.8937 185.131 94.395C185.131 94.875 185.275 95.291 185.563 95.643C185.851 95.9843 186.251 96.251 186.763 96.443C187.285 96.6243 187.888 96.715 188.571 96.715C189.264 96.715 189.867 96.6243 190.379 96.443C190.901 96.251 191.301 95.9843 191.579 95.643C191.867 95.291 192.011 94.875 192.011 94.395C192.011 93.8937 191.867 93.4723 191.579 93.131C191.301 92.7897 190.901 92.5283 190.379 92.347C189.867 92.155 189.264 92.059 188.571 92.059ZM198.269 103.208C197.924 103.208 197.629 103.087 197.383 102.844C197.137 102.602 197.015 102.306 197.019 101.958C197.015 101.617 197.137 101.325 197.383 101.083C197.629 100.841 197.924 100.719 198.269 100.719C198.603 100.719 198.892 100.841 199.138 101.083C199.388 101.325 199.515 101.617 199.519 101.958C199.515 102.189 199.455 102.399 199.337 102.589C199.224 102.778 199.072 102.93 198.883 103.043C198.697 103.153 198.493 103.208 198.269 103.208Z" fill="#AFAFAF"/>
<path d="M6.10269 117.523H8.34269C8.34269 118.824 8.07602 119.987 7.54269 121.011C7.02002 122.035 6.25735 122.91 5.25469 123.635C4.26269 124.35 3.04135 124.91 1.59069 125.315L0.774688 123.651C1.95869 123.331 2.94535 122.92 3.73469 122.419C4.52402 121.907 5.11602 121.326 5.51069 120.675C5.90535 120.014 6.10269 119.299 6.10269 118.531V117.523ZM1.57469 117.523H7.59069V119.219H1.57469V117.523ZM10.9667 116.675H13.1107V124.963H10.9667V116.675ZM8.42269 120.195H11.2707V121.923H8.42269V120.195ZM3.33469 125.571H13.1107V131.347H3.33469V125.571ZM11.0147 127.235H5.43069V129.667H11.0147V127.235ZM18.0854 117.523H19.7494V119.235C19.7494 120.078 19.6321 120.899 19.3974 121.699C19.1628 122.499 18.7948 123.214 18.2934 123.843C17.8028 124.472 17.1521 124.963 16.3414 125.315L15.2214 123.667C15.9041 123.358 16.4534 122.963 16.8694 122.483C17.2961 122.003 17.6054 121.48 17.7974 120.915C17.9894 120.35 18.0854 119.79 18.0854 119.235V117.523ZM18.4854 117.523H20.1494V119.235C20.1494 119.779 20.2401 120.312 20.4214 120.835C20.6028 121.347 20.8961 121.816 21.3014 122.243C21.7068 122.67 22.2348 123.022 22.8854 123.299L21.7654 124.915C20.9974 124.595 20.3681 124.147 19.8774 123.571C19.3974 122.984 19.0454 122.323 18.8214 121.587C18.5974 120.84 18.4854 120.056 18.4854 119.235V117.523ZM26.0214 116.691H28.0534V125.683H26.0214V116.691ZM24.2614 120.291H26.6134V122.003H24.2614V120.291ZM22.9014 116.915H24.8854V125.603H22.9014V116.915ZM17.8614 126.323H28.0534V131.507H25.9254V128.019H17.8614V126.323ZM34.1169 128.067H47.5409V129.795H34.1169V128.067ZM39.7649 124.787H41.8769V128.547H39.7649V124.787ZM39.6849 118.611H41.4929V119.155C41.4929 119.774 41.4023 120.366 41.2209 120.931C41.0503 121.496 40.7943 122.024 40.4529 122.515C40.1223 123.006 39.7116 123.443 39.2209 123.827C38.7303 124.211 38.1703 124.542 37.5409 124.819C36.9116 125.096 36.2236 125.304 35.4769 125.443L34.6289 123.747C35.2903 123.64 35.8876 123.48 36.4209 123.267C36.9649 123.054 37.4396 122.798 37.8449 122.499C38.2503 122.2 38.5863 121.87 38.8529 121.507C39.1303 121.144 39.3383 120.766 39.4769 120.371C39.6156 119.976 39.6849 119.571 39.6849 119.155V118.611ZM40.1329 118.611H41.9249V119.155C41.9249 119.571 41.9943 119.976 42.1329 120.371C42.2716 120.755 42.4796 121.128 42.7569 121.491C43.0343 121.843 43.3756 122.168 43.7809 122.467C44.1969 122.755 44.6769 123.006 45.2209 123.219C45.7756 123.432 46.3889 123.587 47.0609 123.683L46.2289 125.363C45.4609 125.224 44.7569 125.022 44.1169 124.755C43.4876 124.488 42.9223 124.163 42.4209 123.779C41.9303 123.395 41.5143 122.968 41.1729 122.499C40.8316 122.019 40.5703 121.496 40.3889 120.931C40.2183 120.366 40.1329 119.774 40.1329 119.155V118.611ZM35.2209 117.811H46.3889V119.507H35.2209V117.811ZM59.0917 116.675H61.2357V127.507H59.0917V116.675ZM56.5477 120.995H59.3957V122.723H56.5477V120.995ZM54.4357 117.795H56.6597C56.6597 119.128 56.393 120.334 55.8597 121.411C55.3264 122.488 54.553 123.422 53.5397 124.211C52.537 125 51.3157 125.624 49.8757 126.083L48.9957 124.387C50.137 124.024 51.113 123.566 51.9237 123.011C52.7344 122.446 53.353 121.806 53.7797 121.091C54.217 120.366 54.4357 119.587 54.4357 118.755V117.795ZM49.7637 117.795H55.7797V119.491H49.7637V117.795ZM51.5237 129.539H61.6037V131.251H51.5237V129.539ZM51.5237 126.435H53.6517V130.531H51.5237V126.435ZM70.2584 116.883C71.9438 116.883 73.2558 117.102 74.1944 117.539C75.1438 117.976 75.6184 118.606 75.6184 119.427C75.6184 120.238 75.1438 120.862 74.1944 121.299C73.2558 121.736 71.9438 121.955 70.2584 121.955C68.5624 121.955 67.2398 121.736 66.2904 121.299C65.3518 120.862 64.8824 120.238 64.8824 119.427C64.8824 118.606 65.3518 117.976 66.2904 117.539C67.2398 117.102 68.5624 116.883 70.2584 116.883ZM70.2424 118.451C69.5384 118.451 68.9518 118.488 68.4824 118.563C68.0131 118.627 67.6611 118.734 67.4264 118.883C67.2024 119.022 67.0904 119.203 67.0904 119.427C67.0904 119.651 67.2024 119.838 67.4264 119.987C67.6611 120.126 68.0131 120.227 68.4824 120.291C68.9518 120.355 69.5384 120.387 70.2424 120.387C70.9571 120.387 71.5491 120.355 72.0184 120.291C72.4878 120.227 72.8344 120.126 73.0584 119.987C73.2824 119.838 73.3944 119.651 73.3944 119.427C73.3944 119.203 73.2824 119.022 73.0584 118.883C72.8344 118.734 72.4878 118.627 72.0184 118.563C71.5491 118.488 70.9571 118.451 70.2424 118.451ZM63.5384 122.643H76.9464V124.323H63.5384V122.643ZM65.0744 125.155H75.3144V128.947H67.2024V130.259H65.0904V127.475H73.2184V126.723H65.0744V125.155ZM65.0904 129.795H75.7144V131.411H65.0904V129.795ZM91.6979 116.659H93.8419V131.523H91.6979V116.659ZM93.3779 122.147H95.9859V123.907H93.3779V122.147ZM82.8019 126.211H84.0499C84.8926 126.211 85.6819 126.2 86.4179 126.179C87.1539 126.147 87.8686 126.099 88.5619 126.035C89.2553 125.96 89.9646 125.859 90.6899 125.731L90.8979 127.491C90.1513 127.619 89.4153 127.72 88.6899 127.795C87.9753 127.87 87.2393 127.918 86.4819 127.939C85.7246 127.96 84.9139 127.971 84.0499 127.971H82.8019V126.211ZM82.8019 118.035H89.7139V119.747H84.9299V127.043H82.8019V118.035ZM100.561 117.827H102.305V119.971C102.305 120.931 102.219 121.854 102.049 122.739C101.878 123.614 101.617 124.435 101.265 125.203C100.923 125.96 100.481 126.632 99.9367 127.219C99.4034 127.795 98.7687 128.254 98.0327 128.595L96.7687 126.835C97.4194 126.547 97.9794 126.168 98.4487 125.699C98.9287 125.219 99.3234 124.675 99.6327 124.067C99.942 123.448 100.171 122.792 100.321 122.099C100.481 121.406 100.561 120.696 100.561 119.971V117.827ZM100.977 117.827H102.705V119.971C102.705 120.664 102.779 121.342 102.929 122.003C103.078 122.664 103.302 123.288 103.601 123.875C103.91 124.462 104.294 124.984 104.753 125.443C105.222 125.891 105.771 126.248 106.401 126.515L105.169 128.243C104.454 127.912 103.83 127.47 103.297 126.915C102.774 126.36 102.342 125.72 102.001 124.995C101.659 124.259 101.403 123.47 101.233 122.627C101.062 121.774 100.977 120.888 100.977 119.971V117.827ZM107.121 116.659H109.249V131.523H107.121V116.659ZM123.2 118.851H126.848V120.547H123.2V118.851ZM125.904 116.691H128.048V124.211H125.904V116.691ZM118.256 124.819H128.048V128.819H120.384V130.675H118.272V127.283H125.936V126.467H118.256V124.819ZM118.272 129.683H128.464V131.347H118.272V129.683ZM119.024 117.155H120.752V118.227C120.752 119.144 120.603 120.014 120.304 120.835C120.016 121.656 119.568 122.371 118.96 122.979C118.352 123.576 117.574 124.024 116.624 124.323L115.536 122.659C116.358 122.403 117.024 122.051 117.536 121.603C118.048 121.144 118.422 120.622 118.656 120.035C118.902 119.448 119.024 118.846 119.024 118.227V117.155ZM119.456 117.155H121.168V118.227C121.168 118.654 121.232 119.08 121.36 119.507C121.499 119.934 121.702 120.334 121.968 120.707C122.235 121.08 122.576 121.411 122.992 121.699C123.419 121.987 123.92 122.222 124.496 122.403L123.408 124.035C122.512 123.747 121.771 123.315 121.184 122.739C120.598 122.163 120.16 121.486 119.872 120.707C119.595 119.928 119.456 119.102 119.456 118.227V117.155ZM138.399 120.259H141.215V121.987H138.399V120.259ZM140.623 116.691H142.767V125.491H140.623V116.691ZM137.743 125.811C138.788 125.811 139.69 125.923 140.447 126.147C141.204 126.371 141.786 126.696 142.191 127.123C142.607 127.55 142.815 128.062 142.815 128.659C142.815 129.576 142.362 130.28 141.455 130.771C140.548 131.272 139.311 131.523 137.743 131.523C136.175 131.523 134.938 131.272 134.031 130.771C133.124 130.28 132.671 129.576 132.671 128.659C132.671 128.062 132.874 127.55 133.279 127.123C133.695 126.696 134.282 126.371 135.039 126.147C135.796 125.923 136.698 125.811 137.743 125.811ZM137.743 127.427C137.103 127.427 136.564 127.475 136.127 127.571C135.69 127.656 135.354 127.79 135.119 127.971C134.895 128.152 134.783 128.382 134.783 128.659C134.783 128.936 134.895 129.171 135.119 129.363C135.354 129.544 135.69 129.683 136.127 129.779C136.564 129.864 137.103 129.907 137.743 129.907C138.383 129.907 138.922 129.864 139.359 129.779C139.796 129.683 140.127 129.544 140.351 129.363C140.575 129.171 140.687 128.936 140.687 128.659C140.687 128.382 140.575 128.152 140.351 127.971C140.127 127.79 139.796 127.656 139.359 127.571C138.922 127.475 138.383 127.427 137.743 127.427ZM133.791 118.163H135.519V119.107C135.519 120.046 135.37 120.942 135.071 121.795C134.772 122.648 134.314 123.4 133.695 124.051C133.087 124.691 132.308 125.171 131.359 125.491L130.287 123.811C130.895 123.608 131.418 123.336 131.855 122.995C132.303 122.654 132.666 122.275 132.943 121.859C133.231 121.432 133.444 120.984 133.583 120.515C133.722 120.046 133.791 119.576 133.791 119.107V118.163ZM134.239 118.163H135.935V119.091C135.935 119.678 136.052 120.254 136.287 120.819C136.522 121.384 136.884 121.896 137.375 122.355C137.876 122.814 138.516 123.176 139.295 123.443L138.255 125.107C137.338 124.798 136.58 124.344 135.983 123.747C135.396 123.139 134.959 122.435 134.671 121.635C134.383 120.824 134.239 119.976 134.239 119.091V118.163ZM130.863 117.587H138.831V119.267H130.863V117.587ZM145.07 118.915H152.158V120.595H145.07V118.915ZM148.638 121.267C149.267 121.267 149.822 121.416 150.302 121.715C150.792 122.014 151.176 122.43 151.454 122.963C151.742 123.486 151.886 124.094 151.886 124.787C151.886 125.48 151.742 126.094 151.454 126.627C151.176 127.15 150.792 127.56 150.302 127.859C149.822 128.158 149.267 128.307 148.638 128.307C148.008 128.307 147.448 128.158 146.958 127.859C146.467 127.56 146.083 127.15 145.806 126.627C145.528 126.094 145.39 125.48 145.39 124.787C145.39 124.094 145.528 123.486 145.806 122.963C146.083 122.43 146.467 122.014 146.958 121.715C147.459 121.416 148.019 121.267 148.638 121.267ZM148.638 123.027C148.382 123.027 148.147 123.096 147.934 123.235C147.72 123.374 147.555 123.576 147.438 123.843C147.32 124.099 147.262 124.414 147.262 124.787C147.262 125.16 147.32 125.48 147.438 125.747C147.555 126.014 147.72 126.216 147.934 126.355C148.147 126.483 148.382 126.547 148.638 126.547C148.904 126.547 149.139 126.483 149.342 126.355C149.544 126.216 149.704 126.014 149.822 125.747C149.939 125.48 149.998 125.16 149.998 124.787C149.998 124.414 149.939 124.099 149.822 123.843C149.704 123.576 149.544 123.374 149.342 123.235C149.139 123.096 148.904 123.027 148.638 123.027ZM155.79 116.675H157.806V131.491H155.79V116.675ZM154.014 122.707H156.446V124.419H154.014V122.707ZM152.67 116.947H154.654V130.867H152.67V116.947ZM147.598 117.075H149.694V119.971H147.598V117.075ZM165.276 118.323H167.132V118.771C167.132 119.283 167.047 119.779 166.876 120.259C166.716 120.739 166.471 121.187 166.14 121.603C165.81 122.008 165.404 122.376 164.924 122.707C164.455 123.027 163.911 123.299 163.292 123.523C162.674 123.747 161.986 123.907 161.228 124.003L160.444 122.355C161.106 122.27 161.692 122.142 162.204 121.971C162.727 121.79 163.18 121.582 163.564 121.347C163.948 121.102 164.268 120.84 164.524 120.563C164.78 120.286 164.967 119.992 165.084 119.683C165.212 119.374 165.276 119.07 165.276 118.771V118.323ZM165.9 118.323H167.74V118.771C167.74 119.07 167.799 119.374 167.916 119.683C168.044 119.992 168.236 120.286 168.492 120.563C168.748 120.84 169.068 121.102 169.452 121.347C169.847 121.582 170.3 121.79 170.812 121.971C171.324 122.142 171.911 122.27 172.572 122.355L171.788 124.003C171.031 123.907 170.343 123.747 169.724 123.523C169.106 123.299 168.556 123.027 168.076 122.707C167.607 122.376 167.207 122.008 166.876 121.603C166.556 121.187 166.311 120.739 166.14 120.259C165.98 119.779 165.9 119.283 165.9 118.771V118.323ZM165.388 126.083H167.516V131.507H165.388V126.083ZM159.804 124.851H173.212V126.563H159.804V124.851ZM160.988 117.443H171.98V119.123H160.988V117.443ZM180.347 121.667H182.811V123.395H180.347V121.667ZM177.195 117.971H178.811V120.451C178.811 121.294 178.753 122.12 178.635 122.931C178.518 123.742 178.326 124.504 178.059 125.219C177.803 125.934 177.462 126.579 177.035 127.155C176.619 127.72 176.113 128.184 175.515 128.547L174.235 126.947C174.79 126.616 175.254 126.211 175.627 125.731C176.001 125.251 176.305 124.723 176.539 124.147C176.774 123.571 176.939 122.974 177.035 122.355C177.142 121.726 177.195 121.091 177.195 120.451V117.971ZM177.659 117.971H179.243V120.355C179.243 120.963 179.286 121.566 179.371 122.163C179.467 122.76 179.617 123.331 179.819 123.875C180.022 124.419 180.289 124.92 180.619 125.379C180.961 125.838 181.387 126.232 181.899 126.563L180.731 128.227C180.155 127.864 179.665 127.406 179.259 126.851C178.865 126.286 178.55 125.651 178.315 124.947C178.081 124.243 177.91 123.502 177.803 122.723C177.707 121.944 177.659 121.155 177.659 120.355V117.971ZM185.211 116.675H187.243V131.491H185.211V116.675ZM182.203 116.915H184.187V130.835H182.203V116.915ZM192.186 124.211H194.314V128.355H192.186V124.211ZM197.562 124.211H199.69V128.355H197.562V124.211ZM189.242 128.051H202.666V129.779H189.242V128.051ZM195.93 117.411C196.997 117.411 197.946 117.576 198.778 117.907C199.621 118.238 200.277 118.702 200.746 119.299C201.226 119.886 201.466 120.584 201.466 121.395C201.466 122.195 201.226 122.894 200.746 123.491C200.277 124.078 199.621 124.536 198.778 124.867C197.946 125.198 196.997 125.363 195.93 125.363C194.874 125.363 193.925 125.198 193.082 124.867C192.25 124.536 191.594 124.078 191.114 123.491C190.634 122.894 190.394 122.195 190.394 121.395C190.394 120.584 190.634 119.886 191.114 119.299C191.594 118.702 192.25 118.238 193.082 117.907C193.925 117.576 194.874 117.411 195.93 117.411ZM195.93 119.059C195.247 119.059 194.645 119.155 194.122 119.347C193.61 119.528 193.21 119.79 192.922 120.131C192.634 120.472 192.49 120.894 192.49 121.395C192.49 121.875 192.634 122.291 192.922 122.643C193.21 122.984 193.61 123.251 194.122 123.443C194.645 123.624 195.247 123.715 195.93 123.715C196.623 123.715 197.226 123.624 197.738 123.443C198.261 123.251 198.661 122.984 198.938 122.643C199.226 122.291 199.37 121.875 199.37 121.395C199.37 120.894 199.226 120.472 198.938 120.131C198.661 119.79 198.261 119.528 197.738 119.347C197.226 119.155 196.623 119.059 195.93 119.059ZM205.629 130.208C205.284 130.208 204.988 130.087 204.742 129.844C204.496 129.602 204.375 129.306 204.379 128.958C204.375 128.617 204.496 128.325 204.742 128.083C204.988 127.841 205.284 127.719 205.629 127.719C205.962 127.719 206.252 127.841 206.498 128.083C206.748 128.325 206.875 128.617 206.879 128.958C206.875 129.189 206.814 129.399 206.697 129.589C206.583 129.778 206.432 129.93 206.242 130.043C206.057 130.153 205.852 130.208 205.629 130.208Z" fill="#AFAFAF"/>
</svg>
