<svg width="13" height="9" viewBox="0 0 13 9" fill="none" xmlns="http://www.w3.org/2000/svg">
<path d="M10.2387 5.41309C10.9251 5.92599 11.5387 7.21736 11.5387 8.01305C11.5387 8.26094 11.3578 8.4619 11.1347 8.4619H10.8887M8.28867 3.31075C8.73275 3.05387 9.03153 2.57372 9.03153 2.0238C9.03153 1.47388 8.73275 0.993735 8.28867 0.736848M1.54263 8.4619H8.65852C8.88162 8.4619 9.06248 8.26094 9.06248 8.01305C9.06248 6.45489 7.76071 5.19175 5.10058 5.19175C2.44044 5.19175 1.13867 6.45489 1.13867 8.01305C1.13867 8.26094 1.31953 8.4619 1.54263 8.4619ZM6.58629 2.0238C6.58629 2.84434 5.92111 3.50951 5.10058 3.50951C4.28004 3.50951 3.61486 2.84434 3.61486 2.0238C3.61486 1.20326 4.28004 0.538086 5.10058 0.538086C5.92111 0.538086 6.58629 1.20326 6.58629 2.0238Z" stroke="#7C7C7C" stroke-linecap="round"/>
</svg>
