<svg width="11" height="11" viewBox="0 0 11 11" fill="none" xmlns="http://www.w3.org/2000/svg">
<path d="M5.5 4.38889C5.75535 4.38889 6.0082 4.33859 6.24411 4.24088C6.48002 4.14316 6.69437 3.99993 6.87493 3.81937C7.05549 3.63882 7.19872 3.42446 7.29643 3.18855C7.39415 2.95264 7.44444 2.69979 7.44444 2.44444C7.44444 2.1891 7.39415 1.93625 7.29643 1.70034C7.19872 1.46443 7.05549 1.25007 6.87493 1.06951C6.69437 0.888956 6.48002 0.745729 6.24411 0.648012C6.0082 0.550294 5.75535 0.5 5.5 0.5C4.9843 0.5 4.48972 0.704861 4.12507 1.06951C3.76042 1.43417 3.55556 1.92875 3.55556 2.44444C3.55556 2.96014 3.76042 3.45472 4.12507 3.81937C4.48972 4.18403 4.9843 4.38889 5.5 4.38889ZM0.5 10.1667V10.5H10.5V10.1667C10.5 8.92222 10.5 8.3 10.2578 7.82444C10.0447 7.40633 9.70479 7.06638 9.28667 6.85333C8.81111 6.61111 8.18889 6.61111 6.94445 6.61111H4.05556C2.81111 6.61111 2.18889 6.61111 1.71333 6.85333C1.29521 7.06638 0.955271 7.40633 0.742222 7.82444C0.5 8.3 0.5 8.92222 0.5 10.1667Z" fill="#AFAFAF" stroke="#AFAFAF" stroke-linecap="round" stroke-linejoin="round"/>
</svg>
