<svg width="10" height="11" viewBox="0 0 10 11" fill="none" xmlns="http://www.w3.org/2000/svg">
<path d="M5.59063 10.158C6.95234 9.0075 9.375 6.657 9.375 4.5C9.375 3.30653 8.88114 2.16193 8.00206 1.31802C7.12299 0.474106 5.9307 0 4.6875 0C3.4443 0 2.25201 0.474106 1.37294 1.31802C0.49386 2.16193 1.85252e-08 3.30653 0 4.5C0 6.657 2.42188 9.0075 3.78437 10.158C4.0329 10.371 4.35437 10.4887 4.6875 10.4887C5.02063 10.4887 5.3421 10.371 5.59063 10.158ZM3.125 4.5C3.125 4.10218 3.28962 3.72064 3.58265 3.43934C3.87567 3.15804 4.2731 3 4.6875 3C5.1019 3 5.49933 3.15804 5.79235 3.43934C6.08538 3.72064 6.25 4.10218 6.25 4.5C6.25 4.89782 6.08538 5.27936 5.79235 5.56066C5.49933 5.84196 5.1019 6 4.6875 6C4.2731 6 3.87567 5.84196 3.58265 5.56066C3.28962 5.27936 3.125 4.89782 3.125 4.5Z" fill="#AFAFAF"/>
</svg>
