<svg width="12" height="12" viewBox="0 0 12 12" fill="none" xmlns="http://www.w3.org/2000/svg">
<path d="M8.36768 4.53872C8.42007 4.48987 8.46234 4.43118 8.49205 4.36599C8.52176 4.30081 8.53835 4.23041 8.54086 4.15881C8.54336 4.08722 8.53174 4.01583 8.50666 3.94873C8.48158 3.88163 8.44353 3.82012 8.39468 3.76772C8.34583 3.71533 8.28713 3.67306 8.22195 3.64335C8.15676 3.61363 8.08636 3.59705 8.01477 3.59454C7.94317 3.59204 7.87179 3.60366 7.80468 3.62874C7.73758 3.65382 7.67607 3.69187 7.62368 3.74072L6.02768 5.22872L4.53968 3.63218C4.44011 3.5302 4.30459 3.47124 4.16211 3.46792C4.01963 3.4646 3.88151 3.51717 3.7773 3.6144C3.67309 3.71162 3.61107 3.84577 3.60452 3.98814C3.59796 4.13051 3.64739 4.26979 3.74222 4.37618L5.23022 5.97218L3.63368 7.46018C3.57943 7.50853 3.53539 7.56724 3.50415 7.63286C3.47291 7.69847 3.45509 7.76967 3.45175 7.84226C3.44841 7.91486 3.4596 7.98739 3.48468 8.05559C3.50976 8.1238 3.54822 8.18631 3.5978 8.23944C3.64737 8.29258 3.70706 8.33528 3.77337 8.36502C3.83968 8.39477 3.91126 8.41096 3.98391 8.41266C4.05656 8.41435 4.12882 8.40151 4.19644 8.37489C4.26406 8.34827 4.32568 8.3084 4.37768 8.25763L5.97368 6.77018L7.46168 8.36618C7.50972 8.42143 7.5684 8.46644 7.63421 8.49853C7.70002 8.53062 7.77162 8.54913 7.84474 8.55296C7.91786 8.55679 7.991 8.54586 8.0598 8.52082C8.12861 8.49578 8.19167 8.45715 8.24522 8.40722C8.29878 8.35729 8.34173 8.29709 8.37152 8.23021C8.40132 8.16332 8.41734 8.09113 8.41864 8.01792C8.41994 7.94472 8.40648 7.872 8.37908 7.8041C8.35168 7.7362 8.31088 7.67452 8.25913 7.62272L6.77168 6.02672L8.36768 4.53872Z" fill="currentColor"/>
<path fill-rule="evenodd" clip-rule="evenodd" d="M0 6C0 2.68636 2.68636 0 6 0C9.31364 0 12 2.68636 12 6C12 9.31364 9.31364 12 6 12C2.68636 12 0 9.31364 0 6ZM6 10.9091C5.35533 10.9091 4.71697 10.7821 4.12137 10.5354C3.52577 10.2887 2.9846 9.9271 2.52875 9.47125C2.0729 9.0154 1.7113 8.47423 1.46459 7.87863C1.21789 7.28303 1.09091 6.64467 1.09091 6C1.09091 5.35533 1.21789 4.71697 1.46459 4.12137C1.7113 3.52577 2.0729 2.9846 2.52875 2.52875C2.9846 2.0729 3.52577 1.7113 4.12137 1.46459C4.71697 1.21789 5.35533 1.09091 6 1.09091C7.30197 1.09091 8.55062 1.60812 9.47125 2.52875C10.3919 3.44938 10.9091 4.69803 10.9091 6C10.9091 7.30197 10.3919 8.55062 9.47125 9.47125C8.55062 10.3919 7.30197 10.9091 6 10.9091Z" fill="currentColor"/>
</svg>
