<svg width="12" height="12" viewBox="0 0 12 12" fill="none" xmlns="http://www.w3.org/2000/svg">
<g clip-path="url(#clip0_2367_14768)">
<path d="M5.922 10.5C5.922 10.6492 5.86274 10.7923 5.75725 10.8977C5.65176 11.0032 5.50868 11.0625 5.3595 11.0625C2.5155 11.0625 0.1875 8.80875 0.1875 6C0.1875 3.19125 2.5155 0.9375 5.3595 0.9375C7.68825 0.9375 9.67125 2.44875 10.3132 4.53825L10.7655 3.77325C10.8414 3.64475 10.9652 3.55166 11.1097 3.51446C11.2542 3.47726 11.4076 3.49899 11.5361 3.57488C11.6646 3.65076 11.7577 3.77458 11.7949 3.9191C11.8321 4.06362 11.8104 4.217 11.7345 4.3455L10.512 6.41175C10.4371 6.5385 10.3156 6.63086 10.1734 6.669C10.0312 6.70714 9.87975 6.68802 9.7515 6.61575L7.635 5.4225C7.57064 5.38621 7.51405 5.33759 7.46848 5.27943C7.4229 5.22126 7.38923 5.1547 7.36938 5.08352C7.34953 5.01234 7.34389 4.93795 7.35279 4.8646C7.36169 4.79125 7.38496 4.72036 7.42125 4.656C7.45754 4.59164 7.50616 4.53505 7.56432 4.48948C7.62249 4.4439 7.68905 4.41023 7.76023 4.39038C7.83141 4.37053 7.9058 4.36489 7.97915 4.37379C8.0525 4.38269 8.12339 4.40596 8.18775 4.44225L9.29175 5.06475C8.86125 3.34875 7.2735 2.0625 5.36025 2.0625C3.11175 2.0625 1.3125 3.83775 1.3125 6C1.3125 8.16225 3.11175 9.9375 5.3595 9.9375C5.50868 9.9375 5.65176 9.99676 5.75725 10.1023C5.86274 10.2077 5.922 10.3508 5.922 10.5Z" fill="currentColor"/>
</g>
<defs>
<clipPath id="clip0_2367_14768">
<rect width="12" height="12" fill="white"/>
</clipPath>
</defs>
</svg>
