<svg width="12" height="12" viewBox="0 0 12 12" fill="none" xmlns="http://www.w3.org/2000/svg">
<g clip-path="url(#clip0_2367_14763)">
<path opacity="0.3" d="M5.99922 1.19922C3.34722 1.19922 1.19922 3.34722 1.19922 5.99922C1.19922 8.65122 3.34722 10.7992 5.99922 10.7992C8.65122 10.7992 10.7992 8.65122 10.7992 5.99922C10.7992 3.34722 8.65122 1.19922 5.99922 1.19922ZM8.54922 8.48922L5.39922 6.59922V2.99922H6.29922V6.14922L8.99922 7.75122L8.54922 8.48922Z" fill="#E6E6E6"/>
<path d="M5.994 0C2.682 0 0 2.688 0 6C0 9.312 2.682 12 5.994 12C9.312 12 12 9.312 12 6C12 2.688 9.312 0 5.994 0ZM6 10.8C3.348 10.8 1.2 8.652 1.2 6C1.2 3.348 3.348 1.2 6 1.2C8.652 1.2 10.8 3.348 10.8 6C10.8 8.652 8.652 10.8 6 10.8ZM6.3 3H5.4V6.6L8.55 8.49L9 7.752L6.3 6.15V3Z" fill="white"/>
</g>
<defs>
<clipPath id="clip0_2367_14763">
<rect width="12" height="12" fill="white"/>
</clipPath>
</defs>
</svg>
