<svg width="20" height="20" viewBox="0 0 20 20" fill="none" xmlns="http://www.w3.org/2000/svg">
<path d="M10 0C15.5228 0 20 4.47715 20 10C20 15.5228 15.5228 20 10 20C4.47715 20 0 15.5228 0 10C0 4.47715 4.47715 0 10 0ZM9.65918 13.0498C9.29304 13.0498 8.97878 13.177 8.7168 13.4326C8.45796 13.6883 8.32985 13.9966 8.33301 14.3564C8.32993 14.7256 8.45803 15.0401 8.7168 15.2988C8.97876 15.5544 9.2931 15.6816 9.65918 15.6816C9.89267 15.6816 10.1088 15.6235 10.3076 15.5068C10.5065 15.3869 10.6679 15.2272 10.791 15.0283C10.9171 14.8264 10.9821 14.6024 10.9854 14.3564C10.9822 13.9966 10.8464 13.6883 10.5781 13.4326C10.313 13.1769 10.0064 13.0498 9.65918 13.0498ZM8.5791 11.667H10.7383L10.9844 5H8.33301L8.5791 11.667Z" fill="#FFBF00"/>
</svg>
